<?xml version="1.0" standalone="no"?>
<!DOCTYPE svg PUBLIC "-//W3C//DTD SVG 1.1//EN" "http://www.w3.org/Graphics/SVG/1.1/DTD/svg11.dtd" >
<svg xmlns="http://www.w3.org/2000/svg" xmlns:xlink="http://www.w3.org/1999/xlink" version="1.1">
<metadata>
Created by FontForge 20170924 at Sat Oct 18 01:03:54 1930
 By www-data
(c) 1996 SoftMaker Software GmbH 
</metadata>
<defs>
<font id="Riccione-Serial-Regular" horiz-adv-x="694" >
  <font-face 
    font-family="Riccione-Serial"
    font-weight="400"
    font-stretch="normal"
    units-per-em="1000"
    panose-1="0 0 0 0 0 0 0 0 0 0"
    ascent="800"
    descent="-200"
    x-height="496"
    cap-height="721"
    bbox="-169 -233 1074 933"
    underline-thickness="50"
    underline-position="-125"
    unicode-range="U+0020-F002"
  />
<missing-glyph horiz-adv-x="500" 
d="M31 0v814h438v-814h-438zM438 31v752h-376v-752h376z" />
    <glyph glyph-name=".notdef" horiz-adv-x="500" 
d="M31 0v814h438v-814h-438zM438 31v752h-376v-752h376z" />
    <glyph glyph-name=".null" horiz-adv-x="0" 
 />
    <glyph glyph-name="nonmarkingreturn" horiz-adv-x="290" 
 />
    <glyph glyph-name="space" unicode=" " horiz-adv-x="290" 
 />
    <glyph glyph-name="exclam" unicode="!" horiz-adv-x="204" 
d="M122 202h-18q0 71 -5 109q0 14 -3.5 40t-10.5 78.5t-10 72.5q-7 38 -9 49q-8 35 -11 61.5t-3 53.5q0 36 15 51t52 15q55 0 55 -66q0 -25 -3 -52t-11 -63l-21 -125l-15 -115zM49 57q0 26 18.5 43.5t44.5 17.5q27 0 45 -17t18 -44q0 -25 -18.5 -42.5t-44.5 -17.5
t-44.5 17.5t-18.5 42.5z" />
    <glyph glyph-name="quotedbl" unicode="&#x22;" horiz-adv-x="349" 
d="M9 481q38 20 55.5 37.5t26.5 42.5l4 27q0 10 -3 14t-20.5 8.5t-30 19t-12.5 35.5q0 24 18.5 41.5t43.5 17.5q31 0 48.5 -23.5t17.5 -65.5q0 -46 -28 -86q-21 -28 -45 -44.5t-75 -37.5v14zM173 481q39 20 56 37t26 43l4 27q0 10 -3 14t-16 8q-45 10 -45 55q0 24 18.5 41.5
t42.5 17.5q31 0 48.5 -23.5t17.5 -65.5q0 -45 -29 -86q-20 -29 -43.5 -45t-76.5 -37v14z" />
    <glyph glyph-name="numbersign" unicode="#" horiz-adv-x="632" 
d="M47 224l11 50h115l36 172h-115l10 50h116l44 210h50l-45 -210h105l44 210h49l-44 -210h115l-10 -50h-115l-37 -172h115l-10 -50h-115l-45 -210h-49l44 210h-104l-45 -210h-49l44 210h-115zM222 274h105l36 172h-104z" />
    <glyph glyph-name="dollar" unicode="$" horiz-adv-x="541" 
d="M32 250h20q0 -53 8.5 -82.5t26.5 -55.5t46 -45q22 -16 42.5 -23t60.5 -14v292l-85 41q-61 35 -90 77.5t-29 100.5q0 82 56.5 133.5t150.5 51.5v68h49v-69q39 -6 74 -17q26 -8 35 -10.5t17 -2.5q32 0 32 34h19l5 -240l-18 -1q-10 78 -37 122q-17 26 -42 47
q-19 16 -35.5 23t-49.5 13v-274q29 -13 64 -30q24 -12 51 -27q107 -61 107 -163q0 -46 -19 -87t-54 -70q-28 -23 -61.5 -34.5t-92.5 -17.5v-79h-47v84q-39 6 -54.5 10t-48.5 14q-19 6 -29.5 8t-17.5 2q-29 0 -32 -33l-18 -1zM284 28q57 8 89 43.5t32 90.5q0 41 -26 73
q-12 15 -27.5 26.5t-45.5 26.5l-22 10v-270zM239 693q-53 -8 -82 -38t-29 -78q0 -45 29 -76q13 -14 30.5 -26.5t50.5 -30.5z" />
    <glyph glyph-name="percent" unicode="%" horiz-adv-x="782" 
d="M156 11l432 719l37 -21l-431 -719zM27 539q0 80 50.5 135.5t125.5 55.5q74 0 124 -54t50 -135t-50 -135.5t-125 -54.5q-74 0 -124.5 54.5t-50.5 133.5zM404 181q0 81 50 135t125 54t125.5 -54.5t50.5 -134.5q0 -82 -50.5 -136.5t-126.5 -54.5q-74 0 -124 54.5t-50 136.5z
M206 698q-87 0 -87 -157q0 -158 81 -158q40 0 63 37t23 102q0 176 -80 176zM583 338q-87 0 -87 -157q0 -158 80 -158q41 0 64 37t23 102q0 176 -80 176z" />
    <glyph glyph-name="ampersand" unicode="&#x26;" horiz-adv-x="776" 
d="M231 405l-23 49q-9 25 -15 53.5t-6 53.5q0 77 48 123t128 46q69 0 110 -35t41 -94q0 -26 -9.5 -52t-25.5 -44q-21 -22 -53 -41q-24 -14 -82 -46q49 -86 78.5 -128t94.5 -118q18 27 29.5 50t21 47.5t17 55t7.5 48.5q0 36 -15.5 49t-59.5 13v15l222 -1v-17q-28 0 -38.5 -2
t-22.5 -8q-24 -14 -41 -60l-37 -99q-13 -35 -28 -62q-6 -11 -31 -52l41 -39q29 -28 51.5 -40t46.5 -12q53 0 79 59h14q-6 -20 -10.5 -32t-10.5 -23q-32 -68 -122 -68q-32 0 -62 11q-25 11 -41.5 22.5t-54.5 48.5l-34 -32q-70 -54 -179 -54q-101 0 -164 50t-63 132
q0 66 43 120q28 34 55 53.5t101 59.5zM445 97q-77 88 -106 129q-32 44 -87 144q-49 -31 -73 -55t-36 -57q-5 -11 -8 -27.5t-3 -31.5q0 -70 47 -115t123 -45q29 0 55.5 7.5t51.5 22.5zM302 499l23 -49q41 22 62 41t31 44q16 34 16 68q0 45 -20.5 70.5t-55.5 25.5
q-34 0 -56 -28t-22 -73q0 -47 22 -99z" />
    <glyph glyph-name="quotesingle" unicode="'" horiz-adv-x="185" 
d="M9 481q38 20 55.5 37.5t26.5 42.5l4 27q0 10 -3 14t-20.5 8.5t-30 19t-12.5 35.5q0 24 18.5 41.5t43.5 17.5q31 0 49 -24.5t18 -67.5q0 -22 -7 -42t-22 -42q-21 -28 -45 -44.5t-75 -37.5v15z" />
    <glyph glyph-name="parenleft" unicode="(" horiz-adv-x="284" 
d="M296 822l8 -7q-56 -58 -78 -92q-70 -115 -70 -369q0 -122 19 -226q14 -79 39 -124t90 -113l-8 -7q-79 57 -107 88q-62 64 -101 170t-39 212q0 113 43 222q34 85 73 133t131 113z" />
    <glyph glyph-name="parenright" unicode=")" horiz-adv-x="283" 
d="M-19 -108q27 29 47 52.5t30 39.5q34 53 52 148.5t18 221.5q0 107 -15.5 203t-39.5 141t-92 117l7 7q27 -19 49 -37q36 -29 60 -53q62 -62 99.5 -166t37.5 -212q0 -56 -11 -113.5t-31 -109.5q-31 -83 -70.5 -130.5t-133.5 -115.5z" />
    <glyph glyph-name="asterisk" unicode="*" horiz-adv-x="416" 
d="M199 535l-36 15q-2 1 -15.5 5.5t-17.5 5.5l-27 9l-29 7q-9 2 -25 12q-20 13 -20 30q0 27 35 27q15 0 39 -19l22 -21l23 -20q5 -5 24 -18.5t32 -22.5l-5 39l-7 28l-7 32l-6 27l-3 24q0 33 33 33q13 0 22 -9t9 -23l-3 -25l-5 -27l-8 -32q-6 -22 -8 -32t-4 -35q19 13 39 27
q11 8 18 14l22 20l23 21q13 11 21 15t19 4q33 0 33 -27q0 -7 -5 -15t-14 -15q-15 -9 -54 -20l-28 -8q-19 -6 -38 -13q-5 -2 -31 -13q17 -8 31 -13t32 -10l56 -15q54 -16 54 -42q0 -13 -8.5 -21.5t-22.5 -8.5q-17 0 -31 8.5t-42 35.5q-19 19 -32 29t-42 27q4 -43 10 -61
l8 -30q11 -33 11 -53q0 -37 -32 -37q-34 0 -34 37q0 20 11 53l9 30q4 11 6.5 26t2.5 35q-31 -18 -42.5 -27t-30.5 -29q-47 -44 -74 -44q-12 0 -21 8t-9 21q0 22 24 32q8 5 25.5 10t59.5 16q23 6 32 9.5t31 13.5z" />
    <glyph glyph-name="plus" unicode="+" horiz-adv-x="541" 
d="M29 322v80h201v201h81v-200h200v-81h-201v-200h-81v200h-200z" />
    <glyph glyph-name="comma" unicode="," horiz-adv-x="186" 
d="M9 -137v15q38 20 54.5 36.5t26.5 44.5q1 5 3 14t2 13q0 14 -18 19q-48 14 -48 58q0 25 17.5 41.5t43.5 16.5q68 0 68 -89q0 -45 -28 -85q-20 -28 -43.5 -44.5t-77.5 -39.5z" />
    <glyph glyph-name="hyphen" unicode="-" horiz-adv-x="322" 
d="M17 217v76h288v-77z" />
    <glyph glyph-name="period" unicode="." horiz-adv-x="183" 
d="M29 63q0 24 18 42t44 18t44.5 -17.5t18.5 -42.5q0 -26 -18.5 -43.5t-43.5 -17.5q-27 0 -45 17t-18 44z" />
    <glyph glyph-name="slash" unicode="/" horiz-adv-x="411" 
d="M4 -5l350 736h51l-349 -736h-52z" />
    <glyph glyph-name="zero" unicode="0" horiz-adv-x="575" 
d="M35 360q0 156 72.5 260.5t180.5 104.5q107 0 180 -104.5t73 -260.5t-73 -261t-180 -105t-180 105t-73 261zM173 570q-22 -92 -22 -210q0 -55 6 -111.5t16 -99.5q7 -23 14.5 -40t20.5 -33q31 -48 80 -48q37 0 68.5 33.5t44.5 87.5q10 39 16 97t6 114q0 52 -6 110.5
t-16 100.5t-33 73q-33 47 -80 47q-39 0 -70 -33t-45 -88z" />
    <glyph glyph-name="one" unicode="1" horiz-adv-x="562" 
d="M130 636l215 95v-645q0 -43 25 -58l19 -9q14 -3 25 -3h27v-16h-303v16l28 1q15 0 24.5 2.5t19.5 8.5q25 15 25 58v10v473q0 34 -11 48t-39 14q-14 0 -55 -12v17z" />
    <glyph glyph-name="two" unicode="2" horiz-adv-x="571" 
d="M41 0q107 101 152 149q49 53 98 121q98 138 98 252q0 61 -36.5 100.5t-91.5 39.5q-37 0 -73.5 -18.5t-56.5 -43.5t-42 -80l-15 2q16 60 36 94q29 50 87 82t122 32q81 0 130 -48t49 -126q0 -29 -8 -61t-21 -59q-34 -69 -90 -141q-51 -66 -85.5 -101.5t-112.5 -100.5h223
q45 0 65 15t36 62l14 -2l-40 -168h-438z" />
    <glyph glyph-name="three" unicode="3" horiz-adv-x="570" 
d="M182 363l-1 15q45 6 69 16t52 35q62 54 62 130q0 49 -31 80t-81 31q-34 0 -63 -12.5t-49 -31.5t-46 -58l-12 4q8 17 18 34t17 28q29 44 76 68t105 24q75 0 123 -40t48 -104q0 -23 -5 -42.5t-18 -40.5q-15 -28 -35 -46t-63 -45q47 -12 68.5 -24t44.5 -38q38 -47 38 -110
q0 -101 -81 -173t-194 -72q-71 0 -120 24t-49 60q0 20 15 33t38 13q40 0 60 -35l11 -21q25 -40 71 -40q61 0 104 51t43 122q0 81 -54 123t-157 42h-4z" />
    <glyph glyph-name="four" unicode="4" horiz-adv-x="574" 
d="M29 203l1 59l339 459h69v-471h99v-47h-99v-117q0 -43 25 -58l19 -9l52 -3v-16h-303v16l28 1q15 0 25 3t19 8q26 15 26 58v117h-300zM328 601l-254 -351h255z" />
    <glyph glyph-name="five" unicode="5" horiz-adv-x="568" 
d="M109 388l56 328h337l-16 -88h-295l-27 -154q160 0 249.5 -62.5t89.5 -170.5q0 -101 -82 -175t-194 -74q-77 0 -129 27t-52 66q0 22 15.5 35.5t39.5 13.5q21 0 39.5 -12t25.5 -30l9 -23q16 -41 68 -41q66 0 114 52t48 124q0 85 -77 134.5t-219 49.5z" />
    <glyph glyph-name="six" unicode="6" horiz-adv-x="570" 
d="M506 725l-1 -14q-82 -13 -124 -31.5t-86.5 -62t-68.5 -89t-51 -138.5q45 34 75 46t70 12q87 0 143 -61t56 -157q0 -104 -65 -171t-166 -67q-106 0 -171.5 75.5t-65.5 197.5q0 68 21 135t61 126q50 78 125 126q53 34 105.5 49.5t142.5 23.5zM198 377l-29 -26
q-6 -31 -8 -50.5t-2 -42.5q0 -105 37.5 -169.5t98.5 -64.5q53 0 84 51t31 141q0 88 -33 140t-89 52q-24 0 -47 -8t-43 -23z" />
    <glyph glyph-name="seven" unicode="7" horiz-adv-x="569" 
d="M55 547l40 174h422q-48 -92 -69 -137.5t-47 -114.5q-44 -113 -69 -213q-29 -114 -29 -198q-3 -35 -16.5 -49.5t-44.5 -14.5q-59 0 -59 56q0 23 17 74.5t42 105.5l118 253l68 145h-245q-50 0 -73.5 -17.5t-38.5 -66.5z" />
    <glyph glyph-name="eight" unicode="8" horiz-adv-x="569" 
d="M203 362l-45 37q-38 33 -59.5 74t-21.5 82q0 76 60 125t156 49q87 0 145 -44t58 -112q0 -42 -24 -77q-18 -26 -40 -44t-77 -52q59 -40 82 -59.5t44 -44.5q39 -47 39 -113q0 -86 -66 -139t-172 -53q-101 0 -167 49t-66 123q0 55 40 101q20 24 40 41t74 57zM173 591
q0 -44 30.5 -78.5t118.5 -93.5q35 29 50 46t26 39q6 15 10 32t4 33q0 55 -33 90t-87 35q-51 0 -85 -29t-34 -74zM335 275l-98 63q-40 -36 -58.5 -56.5t-29.5 -43.5q-12 -29 -12 -61q0 -64 41 -106t104 -42q58 0 97 36t39 90q0 34 -18.5 61.5t-64.5 58.5z" />
    <glyph glyph-name="nine" unicode="9" horiz-adv-x="571" 
d="M65 -11l1 15q82 13 123.5 31t87 62.5t70 90.5t49.5 137q-44 -34 -73.5 -46t-70.5 -12q-88 0 -144 60t-56 156q0 105 65 172t167 67q106 0 171 -74t65 -197q0 -139 -80 -261q-23 -34 -54.5 -67t-64.5 -56q-52 -36 -104.5 -52t-151.5 -26zM374 338l28 25q4 26 6.5 50.5
t2.5 41.5q0 105 -37 171t-97 66q-55 0 -86 -51.5t-31 -141.5t32 -140.5t90 -50.5q51 0 92 30z" />
    <glyph glyph-name="colon" unicode=":" horiz-adv-x="192" 
d="M39 63q0 24 18 42t44 18t44 -17t18 -43q0 -25 -18 -43t-44 -18q-27 0 -44.5 17.5t-17.5 43.5zM39 332q0 24 18 42t44 18t43.5 -17.5t17.5 -42.5t-17.5 -42.5t-43.5 -17.5t-44 17t-18 43z" />
    <glyph glyph-name="semicolon" unicode=";" horiz-adv-x="200" 
d="M23 -137v15q38 20 55.5 37.5t26.5 43.5l4 27q0 14 -18 19q-48 15 -48 58q0 25 17.5 41.5t43.5 16.5q32 0 50.5 -23.5t18.5 -65.5q0 -43 -28 -85q-20 -28 -44.5 -45t-77.5 -39zM43 332q0 24 18 42t44 18q24 0 42 -17t18 -42q0 -26 -17.5 -43.5t-42.5 -17.5q-26 0 -44 17
t-18 43z" />
    <glyph glyph-name="less" unicode="&#x3c;" horiz-adv-x="252" 
d="M12 248l196 236h32l-133 -236l131 -236h-32z" />
    <glyph glyph-name="equal" unicode="=" horiz-adv-x="542" 
d="M29 266v75h483v-75h-483zM29 384v74h483v-74h-483z" />
    <glyph glyph-name="greater" unicode="&#x3e;" horiz-adv-x="250" 
d="M12 484h31l195 -235l-195 -237h-31l132 237z" />
    <glyph glyph-name="question" unicode="?" horiz-adv-x="429" 
d="M204 203h-15l1 31q0 59 25 97l47 71q50 76 50 154q0 65 -30 103t-82 38q-39 0 -68.5 -23.5t-29.5 -55.5q0 -15 8 -27l19 -26q6 -9 6 -28q0 -48 -49 -48q-26 0 -44.5 21.5t-18.5 54.5q0 70 57.5 116.5t146.5 46.5q86 0 139 -45t53 -118q0 -85 -97 -175l-71 -65
q-14 -13 -21 -22t-13 -23.5t-13 -76.5zM141 55q0 25 18 43t44 18t44 -17t18 -44q0 -25 -18 -42t-44 -17t-44 17t-18 42z" />
    <glyph glyph-name="at" unicode="@" horiz-adv-x="841" 
d="M454 230q-5 -18 -20 -36q-35 -41 -81 -41q-27 0 -50 11q-38 17 -57.5 61t-19.5 117l4 35q15 95 67 155q25 30 52.5 44t55.5 14q59 0 87 -53l5 -10l9 57l49 -1l-38 -215l-14 -87q-2 -12 -2 -31t4 -31q10 -31 41 -31q7 0 17.5 3.5t23.5 14t31 32t31.5 55t20.5 78.5
q4 25 4 55q0 116 -70.5 188.5t-181.5 72.5q-11 0 -25 -1.5t-22 -2.5q-110 -16 -184 -107t-74 -218v-23q2 -11 3.5 -26.5t2 -19t6.5 -25.5q27 -109 104.5 -171t177.5 -62q43 0 82.5 11t81.5 37q24 14 49 36q32 27 54 57l20 -36l-25 -29q-58 -61 -125 -91t-141 -30
q-153 0 -251 113t-98 286q0 55 19 105.5t52 95.5q46 62 110 100.5t136 46.5q12 2 24.5 2h19.5q134 0 220 -87t86 -222q0 -16 -1 -32.5t-4 -32.5q-16 -93 -62.5 -150t-101.5 -65q-6 -1 -17 -1q-39 0 -64 25t-21 60zM284 291q0 -19 3.5 -34t9.5 -28q17 -36 57 -36q27 0 46 19
q15 15 24 30.5t23 55.5q9 27 18 75l2 10l7 42q2 11 2 21.5v15.5q0 15 -1 22q-5 29 -23 45t-43 16q-15 0 -26 -5q-27 -11 -45 -35.5t-35 -75.5l-13 -49q-4 -24 -5 -45t-1 -44z" />
    <glyph glyph-name="A" unicode="A" 
d="M-54 0v16h27h4q23 0 38 7l8 4t8 7q9 7 14 16l13 30l274 642h42l272 -642q29 -64 64 -64l16 1l22 -1v-16h-293v16h33h6q43 0 43 28q0 14 -8 36l-65 159l-292 -1l-67 -158q-10 -20 -10 -37q0 -27 43 -27h7h31v-16h-230zM318 579l-131 -305h259z" />
    <glyph glyph-name="B" unicode="B" horiz-adv-x="638" 
d="M11 0v16l28 1q15 0 24.5 2.5t19.5 8.5q25 14 25 58v29l1 519q0 44 -25 59q-6 4 -20 8l-52 4v16h294q110 0 180 -32q47 -21 75 -61t28 -89q0 -35 -17.5 -66.5t-52.5 -57.5q-21 -15 -40 -23t-53 -16q67 -17 102 -39q88 -54 88 -146q0 -49 -30.5 -93.5t-82.5 -68.5
q-40 -19 -79.5 -24t-141.5 -5h-271zM218 679l-1 -282l36 -4t43 -3q81 0 131 41t50 108q0 66 -49 106t-131 40q-31 0 -79 -6zM218 350l-1 -305q57 -9 90 -9q83 0 136 44t53 115q0 73 -54 117t-146 44q-30 0 -78 -6z" />
    <glyph glyph-name="C" unicode="C" horiz-adv-x="705" 
d="M650 721h16l14 -229h-17q-9 41 -10 46q-4 17 -13 37q-22 56 -78.5 89.5t-127.5 33.5q-125 0 -202.5 -92.5t-77.5 -243.5q0 -147 79.5 -239.5t205.5 -92.5q61 0 118 26q42 20 67 43.5t65 79.5l13 -7q-15 -23 -25 -38q-13 -19 -22 -30q-40 -50 -108.5 -80t-144.5 -30
q-158 0 -262 103t-104 260q0 159 108 266t270 107q40 0 77 -7t74 -21t50 -14q27 0 35 33z" />
    <glyph glyph-name="D" unicode="D" horiz-adv-x="803" 
d="M11 0v16l28 1q14 0 23.5 2.5t19.5 8.5q24 14 24 58l1 13v536q0 42 -25 58q-5 3 -10.5 5t-11 3t-13.5 2.5t-36 1.5v16h361q176 0 286 -99t110 -258q0 -164 -116.5 -264t-308.5 -100h-332zM217 676v-626q78 -9 124 -9q138 0 223.5 87.5t85.5 228.5q0 149 -88 237t-238 88
q-38 0 -107 -6z" />
    <glyph glyph-name="E" unicode="E" horiz-adv-x="649" 
d="M11 0v16l28 1q15 0 24.5 2.5t19.5 8.5q25 14 25 58l1 548q0 45 -25 59q-6 4 -20 8l-53 4v16h572l14 -174l-18 -1q-7 51 -17.5 74t-32.5 37q-17 13 -45 17t-96 4h-170l-2 -283h181q71 0 92.5 18.5t21.5 84.5h18v-247l-18 -1q-7 71 -25.5 88.5t-89.5 17.5h-180v-259
q0 -39 16 -48t89 -9l36 1l110 4q24 0 45 5.5t38 16.5q24 14 39.5 38t32.5 74l17 -2l-49 -177h-579z" />
    <glyph glyph-name="F" unicode="F" horiz-adv-x="565" 
d="M11 0v16l28 1q14 0 23.5 2.5t19.5 8.5q25 15 25 58v34l2 514q0 44 -24 59q-5 3 -10.5 5t-8.5 3l-52 4v16h559l13 -176l-18 -1q-7 47 -17.5 71t-30 39t-45.5 20t-85 5h-172l-1 -284h140q68 0 89 19t21 83h17l-1 -244h-17q0 63 -22 83q-12 12 -28 15.5t-59 3.5h-140v-269
q0 -42 25 -58l20 -9q7 -1 17.5 -2t32.5 -1v-16h-301z" />
    <glyph glyph-name="G" unicode="G" horiz-adv-x="799" 
d="M675 730l17 1l22 -228l-18 -2q-18 56 -35 88q-28 46 -86.5 75t-126.5 29q-130 0 -210.5 -92.5t-80.5 -240.5q0 -149 79.5 -238.5t213.5 -89.5q56 0 87.5 10t85.5 47l1 213q0 43 -25 59q-12 7 -20.5 8t-16 2.5t-36.5 1.5v16l298 -1v-16l-24 -1q-38 0 -53 -16t-15 -53v-222
l-44 -25q-111 -60 -247 -60q-179 0 -292 101t-113 262q0 154 112.5 263.5t270.5 109.5q79 0 169 -29q26 -8 33 -10q19 -6 25 -6q18 0 23.5 8.5t5.5 35.5z" />
    <glyph glyph-name="H" unicode="H" horiz-adv-x="783" 
d="M16 0v16l26 1q14 0 23 2.5t18 8.5q23 14 23 58v549q0 42 -23 58l-18 9l-49 3v16h292v-16l-27 -1q-26 0 -41 -11q-24 -16 -24 -58v-251h350v251q0 43 -23 58l-19 9l-49 3v16h291v-16l-25 -1q-27 0 -42 -11q-22 -15 -22 -58v-549q0 -43 22 -58l19 -9q17 -3 48 -3v-16h-292
v16l27 1q14 0 23.5 2.5t18.5 8.5q23 14 23 58v260h-350v-260q0 -42 24 -58l19 -9q7 -1 17.5 -2t32.5 -1v-16h-293z" />
    <glyph glyph-name="I" unicode="I" horiz-adv-x="324" 
d="M11 0v16l29 1q26 0 43 11q15 8 20 19.5t5 38.5v15v534q0 43 -25 58q-6 4 -20 8q-16 3 -21 3.5t-31 0.5v16h303v-16l-29 -1q-27 0 -44 -11q-25 -15 -25 -58l1 -549q0 -42 24 -58l20 -9q7 -1 17.5 -2t32.5 -1v-16h-300z" />
    <glyph glyph-name="J" unicode="J" horiz-adv-x="402" 
d="M391 705q-38 0 -48 -2t-24 -10q-25 -16 -25 -59l1 -472q0 -51 -9 -77.5t-33.5 -48.5t-58.5 -34t-71 -12q-62 0 -107 28t-45 67q0 23 15.5 38.5t39.5 15.5q23 0 38.5 -12.5t15.5 -31.5l1 -23q4 -48 44 -48q19 0 33 9t20.5 28.5t6.5 75.5v497q0 43 -25 59q-5 3 -10.5 5
t-11.5 3l-15 2.5t-34 1.5v16h302v-16z" />
    <glyph glyph-name="K" unicode="K" 
d="M11 0v16l28 1q15 0 24.5 2.5t19.5 8.5q25 14 25 58v549q0 43 -25 58q-12 8 -19.5 9t-18.5 2t-34 1v16h303v-16q-36 0 -48 -2t-24 -9q-25 -16 -25 -59v-245l257 251q36 36 36 49q0 16 -43 16l-29 -1v16h250v-16l-16 1q-35 0 -56 -8l-24 -10q-11 -7 -29 -21t-29 -25
l-242 -233l344 -329q20 -19 44.5 -35.5t39.5 -21.5l23 -6l23 -3l21 2v-16h-334v16h25q34 0 45 3t11 13q0 14 -37 48l-280 261l-1 -255q0 -42 25 -58l21 -9q7 -1 17.5 -2t35.5 -1v-16h-304z" />
    <glyph glyph-name="L" unicode="L" horiz-adv-x="588" 
d="M11 0v16l29 1q14 0 23.5 2.5t19.5 8.5q26 14 26 58v548q0 45 -25 59q-5 3 -10.5 5t-8.5 3l-53 4v16h303v-16q-37 0 -48 -2t-25 -10q-25 -16 -25 -59l1 -543q0 -25 1.5 -30.5t10.5 -11.5t26.5 -7t100.5 -1q91 0 123 4t57 20q22 12 36.5 37t28.5 76l17 -2l-46 -176h-562z
" />
    <glyph glyph-name="M" unicode="M" horiz-adv-x="951" 
d="M9 0v16l29 1q14 0 24.5 3t19.5 8q25 15 25 58v549q0 43 -25 59q-14 7 -20.5 8t-17.5 2t-34 1v16h206l261 -569l262 569h202v-16l-29 -1q-27 0 -44 -11q-25 -15 -25 -58l1 -549q0 -42 25 -58l20 -9q7 -1 17.5 -2t32.5 -1v-16h-301v16l29 1q26 0 43 11q26 14 26 58v527
l-281 -613h-29l-279 611v-525q0 -42 25 -58l20 -9q14 -3 25.5 -3h26.5v-16h-235z" />
    <glyph glyph-name="N" unicode="N" horiz-adv-x="769" 
d="M11 0v16l29 1q14 0 23.5 2.5t19.5 8.5q26 14 26 58v549q0 43 -25 58l-20 9q-8 1 -20 2t-33 1v16h192l420 -544l-2 458q0 42 -25 58q-11 7 -24.5 9.5t-47.5 2.5v16h234v-16l-28 -1q-28 0 -48.5 -12.5t-20.5 -56.5l2 -635h-39l-474 613l1 -527q0 -42 24 -58l20 -9
q7 -1 18 -2t33 -1v-16h-235z" />
    <glyph glyph-name="O" unicode="O" horiz-adv-x="792" 
d="M36 360q0 165 100.5 268.5t259.5 103.5t260 -104t101 -268t-100.5 -267.5t-260.5 -103.5q-159 0 -259.5 103.5t-100.5 267.5zM396 696q-113 0 -177 -89.5t-64 -246.5q0 -156 64.5 -245.5t176.5 -89.5t176.5 89.5t64.5 245.5q0 157 -64.5 246.5t-176.5 89.5z" />
    <glyph glyph-name="P" unicode="P" horiz-adv-x="596" 
d="M11 705v16h315q122 0 192.5 -54.5t70.5 -149.5q0 -90 -68 -146t-178 -56q-34 0 -55.5 3t-68.5 15l-1 -247q0 -42 25 -58l20 -9q14 -3 25 -3h26v-16h-302v16l28 1q15 0 24.5 2.5t19.5 8.5q25 14 25 58l-1 548q0 44 -25 59q-5 3 -10.5 5t-8.5 3zM304 684q-22 0 -39 -2
t-47 -8l1 -308q34 -8 52.5 -11t39.5 -3q75 0 117.5 43.5t42.5 118.5q0 80 -44 125t-123 45z" />
    <glyph glyph-name="Q" unicode="Q" horiz-adv-x="792" 
d="M470 -2q29 -44 52 -65t63 -43.5t75.5 -32t93.5 -9.5l1 -13l-48 -1q-47 0 -77.5 3t-64.5 10.5t-63.5 18.5t-61.5 27q-38 20 -67.5 42.5t-77.5 67.5q-126 36 -192.5 127.5t-66.5 229.5q0 165 100.5 268.5t259.5 103.5t260 -104t101 -268q0 -188 -127 -291
q-35 -30 -67.5 -44t-92.5 -27zM396 696q-113 0 -177 -89.5t-64 -246.5q0 -156 64.5 -245.5t176.5 -89.5t176.5 89.5t64.5 245.5q0 157 -64.5 246.5t-176.5 89.5z" />
    <glyph glyph-name="R" unicode="R" horiz-adv-x="659" 
d="M9 705v16h336q106 0 172.5 -49.5t66.5 -129.5q0 -61 -46 -112q-28 -31 -60 -47t-99 -31l242 -272q17 -20 34.5 -34t34.5 -22t48 -8h14v-16h-193l-288 331l-54 2l-1 -247q0 -42 25 -58l20 -9q8 -1 19 -2t34 -1v-16h-305v16l29 1q14 0 24.5 3t19.5 8q25 15 25 58v549
q0 42 -26 58l-19 9q-15 3 -27.5 3h-25.5zM217 676l-1 -298l68 -3q81 0 132 44t51 116q0 67 -46.5 107.5t-123.5 40.5q-34 0 -80 -7z" />
    <glyph glyph-name="S" unicode="S" horiz-adv-x="541" 
d="M32 250h20q0 -53 8.5 -82.5t27.5 -57.5q26 -36 75.5 -59t104.5 -23q60 0 98.5 37.5t38.5 96.5q0 52 -35 84q-15 14 -28 22t-56 29l-43 22l-45 20q-34 17 -58.5 32t-43.5 30q-31 26 -47.5 62t-16.5 78q0 84 60.5 135.5t158.5 51.5q45 0 111 -20l28 -9q12 -4 24 -4
q32 0 32 34h19l5 -240l-18 -1q-10 78 -36 120.5t-66 64.5t-88 22q-58 0 -96 -33t-38 -85q0 -49 37 -84q20 -19 46.5 -34t92.5 -47q42 -19 49 -23q17 -8 50 -27q107 -61 107 -163q0 -90 -64 -149t-161 -59q-31 0 -69 7t-83 21q-19 6 -29.5 8t-17.5 2q-29 0 -32 -33l-18 -1z
" />
    <glyph glyph-name="T" unicode="T" horiz-adv-x="583" 
d="M-32 539l11 182h624l12 -182l-17 -1q-7 49 -15.5 72t-25.5 41q-18 17 -43.5 23t-77.5 6h-90v-594q0 -43 24 -58l20 -9q14 -3 25 -3h26v-16h-302v16l30 1q26 0 43 11q26 14 26 58l1 594h-90q-85 0 -117.5 -27.5t-47.5 -114.5z" />
    <glyph glyph-name="U" unicode="U" horiz-adv-x="772" 
d="M4 706v15h304v-15l-28 -2q-26 0 -43 -10q-25 -15 -25 -59v-419q0 -88 56.5 -136.5t158.5 -48.5q96 0 152.5 50t56.5 136v418q0 44 -25 59q-18 8 -21 8l-53 4v15h237v-15l-28 -2q-27 0 -43 -10q-25 -15 -25 -59l-1 -420q0 -103 -75 -164t-204 -61q-82 0 -156.5 31
t-106.5 74.5t-32 115.5v424q0 43 -26 59q-18 8 -20 8z" />
    <glyph glyph-name="V" unicode="V" horiz-adv-x="652" 
d="M-66 705v16h297v-16h-21q-39 0 -51 -5.5t-12 -22.5q0 -16 10 -36l208 -490l201 490q10 20 10 36q0 17 -11.5 22.5t-47.5 5.5h-18v16h218v-16h-16q-37 0 -54.5 -12.5t-33.5 -51.5l-267 -641h-36l-273 641q-19 46 -45 57q-7 4 -16.5 6t-27.5 2z" />
    <glyph glyph-name="W" unicode="W" horiz-adv-x="932" 
d="M-42 705v16h272v-16h-18q-31 0 -41 -5.5t-10 -22.5t8 -36l170 -469l107 309l-58 160q-8 25 -16.5 37.5t-20 19.5t-39.5 7h-11v16h263v-16h-17q-29 0 -40 -6t-11 -22t9 -36l167 -471l166 471q7 23 7 35q0 18 -10.5 23.5t-44.5 5.5h-15v16h199v-16h-12q-34 0 -49.5 -12
t-29.5 -52l-227 -641h-39l-149 422l-145 -422h-38l-234 641q-16 45 -39 57q-13 7 -42 7h-12z" />
    <glyph glyph-name="X" unicode="X" horiz-adv-x="690" 
d="M-45 0v16h13q30 0 45 7q26 11 65 57l215 272l-201 289q-34 46 -60 57q-13 7 -44 7h-13v16h300v-16h-22q-31 0 -42 -4t-11 -16q0 -9 4 -17.5t17 -26.5l149 -210l163 210q24 32 24 44t-12.5 16t-47.5 4h-19v16h234v-16h-14q-19 0 -27.5 -1t-17.5 -6q-30 -13 -65 -57
l-194 -246l220 -315q33 -46 62 -57q15 -7 46 -7h14v-16h-322v16h25q39 0 52 4.5t13 17.5q0 16 -20 42l-166 234l-185 -234q-25 -31 -25 -46q0 -10 12 -14t44 -4h19v-16h-228z" />
    <glyph glyph-name="Y" unicode="Y" horiz-adv-x="642" 
d="M-66 706v15h298v-15h-20q-33 0 -44 -4.5t-11 -17.5t18 -43l184 -277l177 277q19 32 19 43q0 14 -10.5 18t-47.5 4h-17v15h228v-15h-17q-39 0 -60.5 -13t-46.5 -52l-210 -331l-1 -224q0 -42 25 -58q9 -5 18 -9q14 -3 25 -3h27v-16h-304v16l28 1q15 0 25.5 3t19.5 8
q25 15 25 58v226l-217 329q-31 48 -56 57q-16 8 -42 8h-13z" />
    <glyph glyph-name="Z" unicode="Z" horiz-adv-x="564" 
d="M-48 0l488 679h-191q-54 0 -84 -3t-64 -24q-28 -16 -44 -44.5t-26 -79.5h-17l18 193h565l-485 -676l234 -1q83 0 108.5 4t59.5 23q28 18 44 45.5t30 84.5l18 -2l-40 -199h-614z" />
    <glyph glyph-name="bracketleft" unicode="[" horiz-adv-x="224" 
d="M74 -94v908h148v-41h-61v-825h61v-42h-148z" />
    <glyph glyph-name="backslash" unicode="\" horiz-adv-x="321" 
d="M47 720h76l127 -720h-77z" />
    <glyph glyph-name="bracketright" unicode="]" horiz-adv-x="224" 
d="M3 -94v42h60v825h-60v41h147v-908h-147z" />
    <glyph glyph-name="asciicircum" unicode="^" horiz-adv-x="302" 
d="M-2 547l118 134h72l115 -134l-32 -4l-121 87l-119 -87z" />
    <glyph glyph-name="underscore" unicode="_" horiz-adv-x="491" 
d="M47 -30v30h360v-30h-360z" />
    <glyph glyph-name="grave" unicode="`" horiz-adv-x="254" 
d="M-12 684h104l112 -140h-38z" />
    <glyph glyph-name="a" unicode="a" horiz-adv-x="504" 
d="M320 297v85q0 34 -2 43.5t-13 22.5q-23 26 -69 26q-36 0 -62.5 -17t-26.5 -40l3 -17l7 -17l2 -12q0 -21 -15 -35t-37 -14q-23 0 -37 14t-14 37q0 53 58 91t141 38q87 0 126.5 -30t39.5 -97v-274q0 -36 6.5 -47.5t27.5 -11.5q12 0 21 6t21 21l10 -11l-24 -31
q-16 -17 -37.5 -27t-44.5 -10q-42 0 -63 34q-5 8 -8 19.5t-7 32.5q-33 -34 -57 -52q-53 -35 -108 -35q-57 0 -93.5 32.5t-36.5 82.5q0 96 116 140q14 6 50 18t44 14zM321 105v166l-69 -23q-61 -24 -80 -38q-44 -28 -44 -80q0 -36 25 -62t61 -26q10 0 23.5 3.5t26.5 9.5
q22 12 57 50z" />
    <glyph glyph-name="b" unicode="b" horiz-adv-x="558" 
d="M0 680l175 57l1 -331l30 36q56 59 132 59q81 0 134 -64t53 -160q0 -123 -74 -205t-186 -82q-21 0 -40.5 3.5t-39.5 8.5q-44 12 -107 43v560q0 33 -4 44q-8 21 -37 21q-15 0 -33 -5zM176 342l-1 -272q16 -18 25.5 -25t29 -15.5t44.5 -8.5q64 0 104.5 65.5t40.5 169.5
q0 87 -33.5 137.5t-92.5 50.5q-56 0 -94 -47q-23 -33 -23 -55z" />
    <glyph glyph-name="c" unicode="c" horiz-adv-x="472" 
d="M454 185l13 -4q-15 -50 -29.5 -78.5t-37.5 -51.5q-59 -57 -142 -57q-98 0 -161 68t-63 175q0 112 71 188t175 76q70 0 120 -35t50 -84q0 -21 -16.5 -36.5t-38.5 -15.5q-23 0 -38 14t-15 35v7l3 23v8q0 23 -20 39t-49 16q-62 0 -101.5 -56.5t-39.5 -145.5q0 -96 44 -155.5
t116 -59.5q53 0 96 37q35 30 63 93z" />
    <glyph glyph-name="d" unicode="d" horiz-adv-x="556" 
d="M381 445v160q0 31 -5 44q-8 21 -37 21q-14 0 -33 -5l-3 15l174 57v-619q0 -37 9.5 -50.5t34.5 -13.5q12 0 33 8l3 -14l-179 -59v89l-24 -28q-59 -59 -126 -59q-82 0 -138 71t-56 176q0 114 63.5 188.5t159.5 74.5q64 0 124 -56zM272 51q33 0 56 13t51 47v255q0 42 -32 73
t-75 31q-61 0 -98.5 -58.5t-37.5 -153.5q0 -91 38 -149t98 -58z" />
    <glyph glyph-name="e" unicode="e" horiz-adv-x="482" 
d="M452 285h-319l-1 -31q0 -81 46 -137t114 -56q41 0 70 18q34 19 50 40t31 69l15 -2q-5 -22 -10 -39.5t-13 -40.5q-22 -52 -71 -83t-112 -31q-98 0 -158 69t-60 183q0 113 62 186t160 73q64 0 114 -35q43 -29 62.5 -69.5t19.5 -113.5zM146 382l-12 -52l211 -1
q-7 50 -12.5 68.5t-23.5 39.5q-28 34 -67 34q-32 0 -58.5 -24.5t-37.5 -64.5z" />
    <glyph glyph-name="f" unicode="f" horiz-adv-x="284" 
d="M9 462l1 34h82v54q0 84 48 132t132 48q63 0 109 -27t46 -64q0 -19 -13.5 -31.5t-32.5 -12.5q-52 0 -52 55q0 54 -58 54q-82 0 -82 -128v-80h107l1 -34h-108v-378q0 -40 16.5 -54.5t64.5 -14.5v-15h-256v15q46 0 62 14t16 55l1 378h-84z" />
    <glyph glyph-name="g" unicode="g" horiz-adv-x="470" 
d="M95 35q-51 20 -51 56q0 21 14 41q11 16 25.5 28.5t47.5 33.5q-96 48 -96 142q0 72 54.5 119.5t138.5 47.5q29 0 74 -9l172 2l1 -41l-128 3q27 -13 38 -21q17 -15 29 -45t12 -59q0 -68 -54.5 -114.5t-133.5 -46.5q-45 0 -77 12q-14 -13 -24 -25q-14 -17 -14 -30
q0 -22 27.5 -25.5t53.5 -5.5t70 -2q25 0 45 -0.5t59 -4.5q47 -7 73 -34t26 -70q0 -77 -73.5 -125t-191.5 -48q-97 0 -157 28t-60 74q0 22 13.5 40.5t29 33t57.5 45.5zM137 354l1 -22q6 -56 34 -90t69 -34q39 0 60 30t21 84q0 65 -28.5 106.5t-72.5 41.5q-40 0 -62 -30
t-22 -86zM214 14q-38 0 -46 1q-21 5 -36 8q-29 -27 -41 -45.5t-12 -35.5q0 -36 45.5 -57t121.5 -21q74 0 125 27t51 67q0 26 -24 40q-14 7 -33 10t-57 3l-47 1z" />
    <glyph glyph-name="h" unicode="h" horiz-adv-x="565" 
d="M3 0v15q47 0 63 14t16 55v30v491q0 33 -5 49t-36 16q-14 0 -32 -5l-5 15l175 57l2 -335q23 25 38 39t32 26q47 35 103 35q63 0 104 -44q17 -19 24 -44t7 -72l-1 -258q0 -41 16 -55t64 -14v-15h-254v15q45 0 61 14t16 55l-1 257q0 30 -1.5 45t-12.5 30.5t-27.5 22.5
t-38.5 7q-34 0 -66 -19q-21 -13 -65 -56l2 -287q0 -40 15.5 -54.5t59.5 -14.5v-15h-253z" />
    <glyph glyph-name="i" unicode="i" horiz-adv-x="263" 
d="M5 0v15q46 0 62 14t16 55v15v278q0 32 -4 41q-8 22 -37 22q-15 0 -32 -6l-5 15l174 58v-423q0 -40 16.5 -54.5t61.5 -14.5v-15h-252zM58 672q0 27 18 45t46 18q26 0 45 -18t19 -45q0 -26 -18.5 -43.5t-45.5 -17.5t-45.5 17.5t-18.5 43.5z" />
    <glyph glyph-name="j" unicode="j" horiz-adv-x="244" 
d="M189 507l-2 -511q0 -65 -6.5 -87t-31.5 -46q-48 -48 -136 -48q-53 0 -87 18t-34 46q0 19 13 31t33 12q36 0 48 -37l5 -16q8 -21 37 -21q34 0 49 29.5t15 97.5v399v29q-3 11 -4 15q-9 22 -37 22q-16 0 -33 -6l-4 15zM66 671q0 26 18.5 44.5t45.5 18.5t46 -18t19 -46
q0 -24 -19.5 -41.5t-45.5 -17.5q-27 0 -45.5 17.5t-18.5 42.5z" />
    <glyph glyph-name="k" unicode="k" horiz-adv-x="488" 
d="M4 0v15q47 0 63.5 14.5t16.5 54.5v34v487q0 33 -4 44q-8 21 -37 21q-14 0 -33 -5l-4 15l175 57l2 -462l143 142q21 21 29 31.5t8 18.5q0 14 -31 14h-26v15h202v-15h-16q-27 0 -54 -14.5t-63 -49.5l-111 -108l170 -230q33 -47 64 -57q18 -8 39 -8l17 1v-15h-264v15l16 -1
q38 0 38 17q0 8 -4.5 17.5t-20.5 30.5l-136 185l-1 -180q0 -40 15.5 -54.5t61.5 -14.5v-15h-255z" />
    <glyph glyph-name="l" unicode="l" horiz-adv-x="263" 
d="M4 680l175 57l2 -653q0 -40 15.5 -54.5t59.5 -14.5v-15h-251v15q25 0 36 2t21 9q5 3 13 13q5 9 6 19t1 26v8v513v16q0 19 -3 28q-8 21 -37 21q-14 0 -33 -5z" />
    <glyph glyph-name="m" unicode="m" horiz-adv-x="866" 
d="M3 0v15q47 0 63 14t16 55v19v271v16q0 19 -3 28q-8 22 -38 22q-14 0 -32 -6l-5 15l175 58l2 -105q23 24 40 39.5t32 25.5q47 35 102 35t93 -33q12 -10 19.5 -25t14.5 -42q44 44 69 63q50 37 107 37q60 0 98 -36q18 -18 25 -42.5t7 -69.5v-270q0 -40 16.5 -54.5
t64.5 -14.5v-15h-254v15q44 0 60 15t16 54l1 253q0 41 -2 53.5t-12 26.5q-20 29 -64 29q-31 0 -62.5 -17.5t-67.5 -56.5v-288q0 -39 16 -54t59 -15v-15h-248v15q43 0 60 15t17 54l1 263q0 98 -79 98q-26 0 -46 -9t-36 -21.5t-49 -44.5l2 -286q0 -39 16 -54t61 -15v-15h-255z
" />
    <glyph glyph-name="n" unicode="n" horiz-adv-x="564" 
d="M3 0v15q47 0 63.5 14t16.5 55v22v268q0 33 -4 44q-8 22 -37 22q-15 0 -32 -6l-5 15l174 58l-1 -106q15 15 34.5 33.5t38.5 31.5q50 36 106 36q60 0 100 -43q19 -21 25 -41.5t6 -69.5l-2 -264q0 -40 16.5 -54.5t63.5 -14.5v-15h-252v15q44 0 59.5 14.5t15.5 54.5v255v5
l-1 39q0 16 -13 34q-9 14 -26.5 21t-38.5 7q-42 0 -81 -31q-11 -7 -20.5 -15t-29.5 -27v-288q0 -39 16 -54t61 -15v-15h-253z" />
    <glyph glyph-name="o" unicode="o" horiz-adv-x="555" 
d="M34 250q0 113 68 184t178 71q109 0 175 -70t66 -186q0 -118 -67 -189t-177 -71q-108 0 -175.5 72.5t-67.5 188.5zM141 268l1 -22q0 -99 42.5 -161.5t105.5 -62.5q58 0 91 52t33 144q0 110 -40 183t-102 73q-59 0 -95 -56.5t-36 -149.5z" />
    <glyph glyph-name="p" unicode="p" horiz-adv-x="560" 
d="M4 -179v15q47 0 63.5 14.5t16.5 55.5v24v444q0 35 -4 44q-8 22 -37 22q-15 0 -33 -6l-4 15l175 58v-92q8 9 15.5 17t14.5 14q26 27 58.5 41.5t66.5 14.5q82 0 136 -70t54 -177q0 -114 -62.5 -188.5t-157.5 -74.5q-21 0 -35.5 3.5t-32 10.5t-27 13.5t-29.5 26.5l-1 -140
q0 -41 16.5 -55.5t66.5 -14.5v-15h-260zM288 443q-33 0 -53.5 -12t-53.5 -49l1 -258q0 -39 33 -69t75 -30q60 0 97 59t37 154q0 93 -37 149t-99 56z" />
    <glyph glyph-name="q" unicode="q" horiz-adv-x="544" 
d="M411 469l69 33l-1 -596q0 -41 16.5 -55.5t64.5 -14.5v-15h-264v15q50 0 67.5 14.5t17.5 55.5v177q-14 -15 -19.5 -21t-12.5 -12q-59 -59 -131 -59q-80 0 -133 64t-53 161q0 122 75 205t186 83q33 0 56.5 -7t61.5 -28zM381 128v257q0 40 -25 66t-67 26q-66 0 -108.5 -66.5
t-42.5 -171.5q0 -88 35 -139t95 -51q76 0 113 79z" />
    <glyph glyph-name="r" unicode="r" horiz-adv-x="332" 
d="M4 0v15q47 0 63.5 14.5t16.5 54.5v27v263q0 33 -3 44q-8 22 -38 22q-15 0 -32 -6l-5 15l176 58l-1 -109q26 45 53 68q35 32 73 32q26 0 42.5 -14.5t16.5 -37.5q0 -22 -14.5 -35.5t-36.5 -13.5t-37.5 17.5t-29.5 17.5q-26 0 -45.5 -33.5t-19.5 -80.5l-1 -234
q0 -40 17.5 -54.5t67.5 -14.5v-15h-263z" />
    <glyph glyph-name="s" unicode="s" horiz-adv-x="413" 
d="M339 503l15 -1l3 -164h-18q0 38 -5.5 57.5t-18.5 38.5q-30 44 -99 44q-44 0 -71.5 -21t-27.5 -55q0 -32 24 -50l27 -18l27 -15l34 -15l34 -18l35 -18q86 -44 86 -125q0 -69 -49.5 -111.5t-128.5 -42.5q-48 0 -101 22q-28 11 -33 11q-18 0 -18 -27l-14 1l-1 180h17
q6 -76 30 -111q34 -47 102 -47q47 0 79 26t32 65q0 28 -21 52q-9 9 -19 16q-5 3 -35 20l-33 17l-40 18q-50 25 -72.5 44.5t-33.5 43.5t-11 52q0 60 45 96t119 36q27 0 43.5 -3t50.5 -16l21 -6t10 -2q16 0 16 26z" />
    <glyph glyph-name="t" unicode="t" horiz-adv-x="290" 
d="M2 462v16q78 36 104.5 64.5t56.5 106.5h16l-1 -153h117v-34h-117l1 -347q0 -12 1.5 -23t1.5 -15q4 -17 18 -27t32 -10q42 0 69 58l15 -4l-15 -33q-37 -69 -117 -69q-103 0 -103 114l1 356h-80z" />
    <glyph glyph-name="u" unicode="u" horiz-adv-x="571" 
d="M4 449l175 58l2 -363q0 -29 4 -44t17 -29q22 -22 60 -22q27 0 48 12q17 7 32.5 19.5t47.5 43.5v250q0 35 -4 44q-8 22 -37 22q-15 0 -32 -6l-5 15l174 58l3 -391q0 -58 48 -58l26 4l2 -14l-175 -57v102q-34 -36 -54.5 -52.5t-46.5 -29.5q-34 -17 -74 -17q-57 0 -96 34
q-21 19 -29 43t-8 71v232v16q0 19 -3 28q-8 22 -37 22q-15 0 -33 -6z" />
    <glyph glyph-name="v" unicode="v" horiz-adv-x="432" 
d="M-46 481v15h231v-15h-20q-34 0 -34 -26q0 -17 10 -38l111 -285l109 285q10 24 10 39q0 25 -34 25h-18v15h160v-15h-15q-23 0 -37.5 -14t-27.5 -50l-161 -417h-36l-167 417q-15 36 -29 50t-37 14h-15z" />
    <glyph glyph-name="w" unicode="w" horiz-adv-x="710" 
d="M-39 481v15h218v-15h-15q-19 0 -24.5 -4.5t-5.5 -18.5q0 -8 2.5 -18.5t7.5 -22.5l108 -284l85 225l-23 59q-15 37 -28.5 50.5t-34.5 13.5h-14v15h226v-15h-20q-34 0 -34 -26q0 -14 8 -38l111 -287l108 287q8 24 8 38q0 26 -33 26h-21v15h159v-15h-14q-21 0 -35.5 -14.5
t-27.5 -49.5l-156 -417h-41l-118 309l-118 -309h-39l-160 417q-24 64 -65 64h-14z" />
    <glyph glyph-name="x" unicode="x" horiz-adv-x="450" 
d="M-35 0v15h14q23 0 40.5 13t43.5 51l112 161l-110 177q-22 36 -40.5 50t-42.5 14h-14v15h240v-15h-21q-28 0 -28 -17q0 -15 20 -47l59 -94l67 94q23 31 23 48q0 16 -29 16h-20v15h166v-15h-14q-14 0 -28 -6l-17 -12q-8 -7 -14 -15t-23 -31l-91 -128l132 -210
q16 -24 28 -38t22 -18.5t19 -6.5t26 -2v-14h-241v15l21 -1q32 0 32 18q0 15 -19 47l-82 127l-89 -127q-22 -35 -22 -48q0 -16 26 -16l23 1v-16h-169z" />
    <glyph glyph-name="y" unicode="y" horiz-adv-x="441" 
d="M-44 481v15h227v-15h-20q-33 0 -33 -26q0 -11 1 -16t7 -22l113 -305l121 305q10 28 10 38q0 26 -36 26h-20v15h163v-15h-13q-19 0 -28 -6l-14 -12l-12 -15l-13 -31l-177 -441q-30 -77 -60 -111q-20 -22 -50.5 -36t-62.5 -14q-37 0 -59.5 16t-22.5 43q0 20 15 34t37 14
q32 0 50 -31l5 -10l9 -6q5 -4 16 -4q24 0 43.5 25.5t44.5 88.5l-163 432q-14 36 -28 50t-36 14h-14z" />
    <glyph glyph-name="z" unicode="z" horiz-adv-x="443" 
d="M-10 0l317 462h-129q-42 0 -60.5 -4t-37.5 -18q-27 -19 -38 -86l-16 1l13 141h400l-313 -461l157 1q71 0 99.5 23.5t45.5 95.5l15 -1l-19 -154h-434z" />
    <glyph glyph-name="braceleft" unicode="{" horiz-adv-x="342" 
d="M47 360q27 0 45 20t18 52v330q0 71 81 71h78v-45h-12q-35 0 -46.5 -11.5t-11.5 -46.5v-290q0 -31 -20 -54t-51 -26q31 -3 51 -26t20 -54v-290q0 -35 11.5 -46.5t46.5 -11.5h12v-45h-78q-81 0 -81 71v330q0 31 -17.5 51.5t-45.5 20.5z" />
    <glyph glyph-name="bar" unicode="|" horiz-adv-x="184" 
d="M47 0v720h76v-720h-76z" />
    <glyph glyph-name="braceright" unicode="}" horiz-adv-x="342" 
d="M47 -113v45h12q35 0 46.5 11.5t11.5 46.5v290q0 31 20 54t51 26q-31 3 -51 26t-20 54v290q0 35 -11.5 46.5t-46.5 11.5h-12v45h78q81 0 81 -71v-330q0 -31 17.5 -51.5t45.5 -20.5q-27 0 -45 -20t-18 -52v-330q0 -71 -81 -71h-78z" />
    <glyph glyph-name="asciitilde" unicode="~" horiz-adv-x="345" 
d="M-2 776q3 10 7 22.5t9 25.5q11 26 33.5 41t49.5 15q22 0 40.5 -5t63.5 -23q63 -24 83 -24q32 0 49 37l14 -1q-9 -36 -18 -53.5t-24 -31.5q-23 -20 -59 -20q-18 0 -29.5 3.5t-70 28t-89.5 24.5q-17 0 -27 -8.5t-18 -30.5h-14z" />
    <glyph glyph-name="quotesinglbase" unicode="&#x201a;" horiz-adv-x="186" 
d="M9 -137v15q38 20 54.5 36.5t26.5 44.5q1 5 3 14t2 13q0 14 -18 19q-48 14 -48 58q0 25 17.5 41.5t43.5 16.5q68 0 68 -89q0 -45 -28 -85q-20 -28 -43.5 -44.5t-77.5 -39.5z" />
    <glyph glyph-name="florin" unicode="&#x192;" horiz-adv-x="415" 
d="M226 457l-51 -456q-9 -83 -60.5 -130.5t-131.5 -47.5q-67 0 -109.5 23.5t-42.5 60.5q0 21 14 35t37 14q21 0 35 -14t14 -36l-2 -15q0 -20 13.5 -31.5t35.5 -11.5q85 0 100 127l53 483h-83l3 34l84 -1l6 55q8 82 60 130t135 48q61 0 104.5 -25t43.5 -60q0 -20 -13.5 -34.5
t-34.5 -14.5q-22 0 -36 14t-14 36l1 15q0 19 -15 31t-37 12q-85 0 -97 -127l-9 -80h110l-4 -34h-109z" />
    <glyph glyph-name="quotedblbase" unicode="&#x201e;" horiz-adv-x="350" 
d="M9 -136v14q38 20 54.5 36.5t26.5 44.5q1 5 3 14t2 13q0 14 -18 19q-48 14 -48 58q0 25 17.5 41.5t43.5 16.5q32 0 50 -23t18 -64q0 -44 -28 -86q-20 -28 -44 -45t-77 -39zM173 -136v14q39 20 55.5 36.5t25.5 44.5q4 9 4.5 17t0.5 10q0 14 -18 19q-47 15 -47 58
q0 25 17.5 41.5t42.5 16.5q32 0 50 -23t18 -64q0 -48 -28 -86q-18 -27 -43 -44.5t-78 -39.5z" />
    <glyph glyph-name="ellipsis" unicode="&#x2026;" horiz-adv-x="996" 
d="M104 53q0 27 18 45t45 18t45 -18t18 -45t-18 -45t-45 -18t-45 18t-18 45zM437 53q0 27 18 45t45 18t45 -18t18 -45t-18 -45t-45 -18t-45 18t-18 45zM770 53q0 27 18 45t45 18t45 -18t18 -45t-18 -45t-45 -18t-45 18t-18 45z" />
    <glyph glyph-name="dagger" unicode="&#x2020;" horiz-adv-x="683" 
d="M17 498l78 50l234 -49l-52 220l52 76h27l50 -76l-51 -220l233 49l79 -50v-27l-78 -48l-234 49l51 -189l-49 -446h-29l-57 446l58 189l-234 -49l-78 48v27z" />
    <glyph glyph-name="daggerdbl" unicode="&#x2021;" horiz-adv-x="706" 
d="M25 133v30l80 48l234 -47l-40 150l45 154l-237 -45l-78 46v29l78 49l237 -49l-54 220l52 73l28 -1l48 -73l-49 -219l233 47l80 -48l-1 -30l-79 -46l-233 47l36 -159l-40 -146l233 49l79 -48l1 -30l-80 -48l-233 48l25 -104l-24 -192h-28l-23 192l24 104l-235 -49z" />
    <glyph glyph-name="circumflex" unicode="&#x2c6;" horiz-adv-x="302" 
d="M-2 547l118 134h72l115 -134l-32 -4l-121 87l-119 -87z" />
    <glyph glyph-name="perthousand" unicode="&#x2030;" horiz-adv-x="972" 
d="M22 539q0 82 41.5 136.5t104.5 54.5q60 0 100.5 -55.5t40.5 -138.5q0 -79 -42 -132t-105 -53q-60 0 -100 54t-40 134zM125 8l357 722l30 -16l-355 -724zM331 181q0 81 41 135t105 54q61 0 101 -55t40 -139q0 -78 -42 -132t-104 -54q-59 0 -100 55.5t-41 135.5zM663 181
q0 82 41.5 135.5t104.5 53.5q61 0 101 -55t40 -139q0 -79 -41.5 -132.5t-104.5 -53.5q-59 0 -100 55.5t-41 135.5zM477 338q-73 0 -73 -157q0 -158 68 -158q35 0 54 37t19 103q0 175 -68 175zM168 698q-73 0 -73 -157q0 -158 68 -158q34 0 53 37t19 103q0 175 -67 175z
M810 338q-73 0 -73 -157q0 -158 67 -158q35 0 54 37t19 103q0 175 -67 175z" />
    <glyph glyph-name="Scaron" unicode="&#x160;" horiz-adv-x="541" 
d="M32 250h20q0 -53 8.5 -82.5t27.5 -57.5q26 -36 75.5 -59t104.5 -23q60 0 98.5 37.5t38.5 96.5q0 52 -35 84q-15 14 -28 22t-56 29l-43 22l-45 20q-34 17 -58.5 32t-43.5 30q-31 26 -47.5 62t-16.5 78q0 84 60.5 135.5t158.5 51.5q45 0 111 -20l28 -9q12 -4 24 -4
q32 0 32 34h19l5 -240l-18 -1q-10 78 -36 120.5t-66 64.5t-88 22q-58 0 -96 -33t-38 -85q0 -49 37 -84q20 -19 46.5 -34t92.5 -47q42 -19 49 -23q17 -8 50 -27q107 -61 107 -163q0 -90 -64 -149t-161 -59q-31 0 -69 7t-83 21q-19 6 -29.5 8t-17.5 2q-29 0 -32 -33l-18 -1z
M117 926l33 4l119 -89l121 89l32 -4l-115 -134h-72z" />
    <glyph glyph-name="guilsinglleft" unicode="&#x2039;" horiz-adv-x="252" 
d="M12 248l196 236h32l-133 -236l131 -236h-32z" />
    <glyph glyph-name="OE" unicode="&#x152;" horiz-adv-x="1066" 
d="M1009 0h-486l-57 -3q-53 -5 -82 -5q-148 0 -248 105t-100 260q0 160 103 267t259 107q18 0 39.5 -1t43.5 -4l60 -5h462l12 -173h-17q-10 73 -42 102t-105 29l-214 1l1 -283h189q57 0 79.5 21.5t22.5 80.5h18v-245h-18q-6 59 -28.5 81.5t-73.5 22.5h-189v-278
q0 -31 19 -31l127 -6l35 -1q108 0 149.5 26.5t70.5 113.5l17 -3zM529 70v580q-36 27 -61 36t-66 9q-114 0 -180 -88t-66 -241q0 -159 63.5 -249.5t176.5 -90.5q41 0 65 8t68 36z" />
    <glyph glyph-name="quoteleft" unicode="&#x2018;" horiz-adv-x="186" 
d="M177 733l-1 -17q-85 -47 -85 -106q0 -8 3 -13l7 -6l15 -4q41 -16 41 -55q0 -26 -17 -42t-44 -16q-32 0 -50.5 23.5t-18.5 63.5q0 48 34 91q20 27 43.5 43.5t72.5 37.5z" />
    <glyph glyph-name="quoteright" unicode="&#x2019;" horiz-adv-x="185" 
d="M9 481q38 20 55.5 37.5t26.5 42.5l4 27q0 10 -3 14t-20.5 8.5t-30 19t-12.5 35.5q0 24 18.5 41.5t43.5 17.5q31 0 49 -24.5t18 -67.5q0 -22 -7 -42t-22 -42q-21 -28 -45 -44.5t-75 -37.5v15z" />
    <glyph glyph-name="quotedblleft" unicode="&#x201c;" horiz-adv-x="350" 
d="M177 732l-1 -16q-85 -47 -85 -106q0 -8 3 -13l7 -6l15 -4q41 -16 41 -55q0 -26 -17 -42t-44 -16q-31 0 -50 23t-19 63q0 48 34 91q23 28 44.5 44t71.5 37zM342 732v-16q-87 -46 -87 -106q0 -8 3 -13l7 -6l15 -4q41 -16 41 -55q0 -26 -17 -42t-43 -16q-32 0 -51 23t-19 63
q0 48 34 91q22 27 45 43.5t72 37.5z" />
    <glyph glyph-name="quotedblright" unicode="&#x201d;" horiz-adv-x="349" 
d="M9 481q38 20 55.5 37.5t26.5 42.5l4 27q0 10 -3 14t-20.5 8.5t-30 19t-12.5 35.5q0 24 18.5 41.5t43.5 17.5q31 0 48.5 -23.5t17.5 -65.5q0 -46 -28 -86q-21 -28 -45 -44.5t-75 -37.5v14zM173 481q39 20 56 37t26 43l4 27q0 10 -3 14t-16 8q-45 10 -45 55q0 24 18.5 41.5
t42.5 17.5q31 0 48.5 -23.5t17.5 -65.5q0 -45 -29 -86q-20 -29 -43.5 -45t-76.5 -37v14z" />
    <glyph glyph-name="bullet" unicode="&#x2022;" horiz-adv-x="182" 
d="M29 258q0 25 18 42t44 17t43.5 -17.5t17.5 -42.5q0 -23 -18 -40t-43 -17q-26 0 -44 17t-18 41z" />
    <glyph glyph-name="endash" unicode="&#x2013;" horiz-adv-x="542" 
d="M29 324v76h482v-76h-482z" />
    <glyph glyph-name="emdash" unicode="&#x2014;" horiz-adv-x="996" 
d="M30 331v74h936v-74h-936z" />
    <glyph glyph-name="tilde" unicode="&#x2dc;" horiz-adv-x="312" 
d="M-2 551q24 84 90 84q29 0 94 -22q29 -9 45 -13.5t29 -4.5q18 0 27.5 6t18.5 25h13q-25 -84 -92 -84q-17 0 -38 6q-28 10 -51 17q-54 20 -81 20q-17 0 -25.5 -7t-16.5 -27h-13z" />
    <glyph glyph-name="trademark" unicode="&#x2122;" horiz-adv-x="788" 
d="M47 670v50h217v-50h-81v-310h-56v310h-80zM252 360l69 369h30l100 -228q8 -20 12 -34t4 -29q0 30 16 63l100 228h30l69 -369h-56l-36 210l-2 11l-1 9q-1 11 -1 17t2 18l-10 -35l-5 -13l-1 -5l-95 -220h-20l-95 220l-2 7l-4 12l-10 34q2 -16 2 -22q-1 -9 -1 -13l-1 -9
l-2 -11l-36 -210h-56z" />
    <glyph glyph-name="scaron" unicode="&#x161;" horiz-adv-x="413" 
d="M339 503l15 -1l3 -164h-18q0 38 -5.5 57.5t-18.5 38.5q-30 44 -99 44q-44 0 -71.5 -21t-27.5 -55q0 -32 24 -50l27 -18l27 -15l34 -15l34 -18l35 -18q86 -44 86 -125q0 -69 -49.5 -111.5t-128.5 -42.5q-48 0 -101 22q-28 11 -33 11q-18 0 -18 -27l-14 1l-1 180h17
q6 -76 30 -111q34 -47 102 -47q47 0 79 26t32 65q0 28 -21 52q-9 9 -19 16q-5 3 -35 20l-33 17l-40 18q-50 25 -72.5 44.5t-33.5 43.5t-11 52q0 60 45 96t119 36q27 0 43.5 -3t50.5 -16l21 -6t10 -2q16 0 16 26zM53 677l33 4l119 -89l121 89l32 -4l-115 -134h-72z" />
    <glyph glyph-name="guilsinglright" unicode="&#x203a;" horiz-adv-x="250" 
d="M12 484h31l195 -235l-195 -237h-31l132 237z" />
    <glyph glyph-name="oe" unicode="&#x153;" horiz-adv-x="861" 
d="M458 400l27 40q25 29 64 46t82 17q96 0 153 -75q23 -31 32.5 -61t9.5 -83h-319v-20q0 -91 44 -147t116 -56q40 0 71 18t47 39.5t33 66.5l13 -2q-12 -55 -28 -88q-21 -47 -68 -76t-105 -29q-46 0 -88 20q-28 13 -44.5 28.5t-39.5 50.5l-29 -35q-62 -65 -160 -65
q-103 0 -169 72t-66 183q0 115 65.5 187.5t171.5 72.5q19 0 40.5 -4t43.5 -10q36 -14 56 -31.5t47 -58.5zM615 469q-85 0 -105 -140h208q0 64 -28.5 102t-74.5 38zM139 267l2 -21q0 -98 41 -161t101 -63q54 0 86 52.5t32 142.5q0 115 -38 184.5t-101 69.5q-57 0 -90 -54.5
t-33 -149.5z" />
    <glyph glyph-name="Ydieresis" unicode="&#x178;" horiz-adv-x="642" 
d="M-66 706v15h298v-15h-20q-33 0 -44 -4.5t-11 -17.5t18 -43l184 -277l177 277q19 32 19 43q0 14 -10.5 18t-47.5 4h-17v15h228v-15h-17q-39 0 -60.5 -13t-46.5 -52l-210 -331l-1 -224q0 -42 25 -58q9 -5 18 -9q14 -3 25 -3h27v-16h-304v16l28 1q15 0 25.5 3t19.5 8
q25 15 25 58v226l-217 329q-31 48 -56 57q-16 8 -42 8h-13zM179 851q0 22 16.5 37.5t38.5 15.5t38 -15t16 -38q0 -21 -16.5 -36.5t-37.5 -15.5q-23 0 -39 15t-16 37zM353 851q0 22 16.5 37.5t38.5 15.5q23 0 38.5 -15.5t15.5 -37.5q0 -21 -15.5 -36.5t-38.5 -15.5t-39 15
t-16 37z" />
    <glyph glyph-name="nonbreakingspace" unicode="&#xa0;" horiz-adv-x="500" 
 />
    <glyph glyph-name="exclamdown" unicode="&#xa1;" horiz-adv-x="204" 
d="M102 525h18l4 -109q0 -15 4.5 -47t9.5 -66l20 -127q7 -32 10.5 -59t3.5 -54q0 -36 -15 -51t-51 -15q-56 0 -56 65q0 44 14 114q4 23 7 44q10 61 13.5 86t9 59t5.5 51q2 12 2 47.5t1 61.5zM49 671q0 25 18 43t44 18q27 0 45.5 -17.5t18.5 -43.5t-18.5 -43.5t-44.5 -17.5
q-27 0 -45 17t-18 44z" />
    <glyph glyph-name="cent" unicode="&#xa2;" horiz-adv-x="472" 
d="M245 498v68h40v-67q46 0 74 -10.5t52 -31.5q39 -34 39 -75q0 -21 -16.5 -36.5t-38.5 -15.5q-23 0 -38 14t-15 35v7l3 23v8q0 45 -61 54v-414h12q32 0 48 7q23 7 46 27.5t35 38t29 55.5l13 -4q-15 -51 -29.5 -78t-38.5 -52.5t-48.5 -37t-69.5 -18.5v-70h-38v69
q-57 8 -84.5 19.5t-53.5 39.5q-35 34 -53 81.5t-18 102.5q0 120 81 198q29 27 55 40t75 23zM244 76v386q-33 -17 -47 -29t-27 -33q-33 -53 -33 -129q0 -87 40 -145q13 -17 25.5 -26.5t41.5 -23.5z" />
    <glyph glyph-name="sterling" unicode="&#xa3;" horiz-adv-x="588" 
d="M243 115l1 35q0 20 -2 33.5t-10 32.5q-7 24 -15 41.5t-38 73.5h-122v32l105 -1l-16 38q-22 48 -30 77.5t-8 58.5q0 83 63.5 137.5t160.5 54.5q81 0 134 -38t53 -95q0 -32 -22 -55t-54 -23q-25 0 -42.5 15.5t-17.5 38.5q0 17 11.5 29.5t31.5 16.5q16 5 19 7.5t3 10.5
q0 23 -32.5 42t-72.5 19q-60 0 -97 -36t-37 -95q0 -22 5 -43t17 -46l24 -53l25 -60h183v-32l-172 1q15 -42 21 -68t6 -56q0 -33 -5.5 -52t-26.5 -55l21 -9q45 -17 62 -21q34 -8 59 -8q32 0 57 11q10 4 15 6.5t11 8.5q23 20 31 62h16q-5 -42 -10 -59.5t-16 -39.5
q-35 -64 -117 -64q-39 0 -77 14q-16 7 -29 14t-33 22l-24 16q-57 -63 -130 -63q-40 0 -66 19t-26 51q0 34 29 57t72 23q37 0 112 -26zM165 26q30 11 60 45q-33 18 -53 25t-40 7q-28 0 -45 -12t-17 -32q0 -18 15 -30t38 -12q17 0 42 9z" />
    <glyph glyph-name="currency" unicode="&#xa4;" horiz-adv-x="495" 
d="M47 213l62 61q-29 40 -29 88q0 46 28 86l-60 58q12 18 31 35l62 -62q38 29 88 29q49 0 87 -28l61 62q8 -6 14.5 -12t12.5 -14l7 -10l-62 -58q28 -38 28 -87q0 -48 -29 -88l62 -62l-7 -8l-8 -7l-19 -17l-60 62q-38 -29 -87 -29t-87 29l-63 -61q-9 7 -16.5 14.5t-15.5 18.5
zM129 360q0 -41 29 -70t71 -29q41 0 70 28.5t29 70.5q0 41 -29 70t-70 29t-70.5 -28.5t-29.5 -70.5z" />
    <glyph glyph-name="yen" unicode="&#xa5;" horiz-adv-x="797" 
d="M12 706v15h298v-15h-20q-34 0 -45 -4.5t-11 -17.5q0 -14 19 -43l184 -277l176 277q18 28 18 43q0 14 -10 18t-46 4h-17v15h228v-15h-17q-32 0 -49 -8q-30 -10 -58 -57l-148 -238h209v-57h-247l-25 -36v-27h272v-58h-273l1 -139q0 -43 24 -58l19 -9q14 -3 25 -3h26v-16
h-303v16l28 1q15 0 24.5 2.5t19.5 8.5q25 14 25 58l-1 139l-261 -1v58h261l1 30l-21 33h-239v57h204l-160 239q-26 39 -46 52t-53 13h-12z" />
    <glyph glyph-name="section" unicode="&#xa7;" horiz-adv-x="571" 
d="M129 561l-22 25q-23 35 -23 79q0 60 55 97t144 37q48 0 88 -10q47 -9 118 -42l6 -170l-31 -1q-11 84 -39 120q-47 64 -130 64q-48 0 -79.5 -23t-31.5 -58q0 -40 37 -71l259 -220q59 -48 59 -118q0 -25 -6 -49q-10 -39 -28 -65t-64 -70q29 -30 38.5 -49t9.5 -46
q0 -61 -58 -102t-146 -41q-34 0 -77 8q-56 11 -125 46l-6 167l31 1q8 -53 17 -78t30 -50q47 -57 117 -57q49 0 83.5 24.5t34.5 59.5q0 20 -7 34t-25 29l-268 229q-60 51 -60 122q0 31 11.5 60.5t28 52t59.5 65.5zM423 315l-262 219q-33 -33 -44.5 -56t-11.5 -55
q0 -53 51 -94l256 -217q31 34 43 58t12 55q0 52 -44 90z" />
    <glyph glyph-name="dieresis" unicode="&#xa8;" horiz-adv-x="225" 
d="M-29 602q0 22 16.5 37.5t38.5 15.5t38 -15t16 -38q0 -21 -16.5 -36.5t-37.5 -15.5q-23 0 -39 15t-16 37zM145 602q0 22 16.5 37.5t38.5 15.5q23 0 38.5 -15.5t15.5 -37.5q0 -21 -15.5 -36.5t-38.5 -15.5t-39 15t-16 37z" />
    <glyph glyph-name="copyright" unicode="&#xa9;" horiz-adv-x="932" 
d="M58 361q0 155 109 264q53 53 122.5 81t141.5 28q74 0 141 -27t121.5 -81t83 -123t28.5 -142q0 -75 -27 -141.5t-81.5 -121t-123.5 -83t-142 -28.5q-74 0 -141.5 27.5t-122.5 82.5q-109 109 -109 264zM108 361q0 -65 25 -125.5t71 -107t105 -71t123 -24.5q62 0 121.5 24.5
t105.5 71t70.5 106.5t24.5 125q0 64 -24 124.5t-70.5 107.5t-105.5 71.5t-123 24.5q-62 0 -121 -24t-105.5 -71t-71.5 -106.5t-25 -125.5zM605 544l-30 -44q-38 33 -88 44q-10 1 -18.5 2.5t-19.5 1.5q-79 0 -132.5 -55.5t-53.5 -139.5l3 -37q13 -67 64.5 -108t117.5 -41
q25 0 51 7t50 22l24 18l31 -43q-33 -27 -71.5 -42t-83.5 -15q-105 0 -176 69t-71 169q0 23 4 47t13 48q26 71 87.5 113t139.5 42q17 0 27.5 -2t15.5 -2q67 -12 116 -54z" />
    <glyph glyph-name="ordfeminine" unicode="&#xaa;" horiz-adv-x="482" 
d="M57 340h342v-61h-342v61zM332 652v68h66l1 -331h-67v73l-3 -8q-15 -33 -48 -53t-74 -20q-15 0 -29.5 3t-31.5 10q-79 32 -96 124q-3 20 -3 38q0 73 47.5 124t112.5 51q15 0 30 -3q60 -13 87 -61l5 -8zM115 556l3 -23q9 -48 46 -74q28 -19 61 -19q32 0 61 20q36 26 45 72
q2 8 2 24t-2 24q-12 60 -62 83q-20 10 -45 10q-22 0 -42 -9q-53 -24 -65 -87z" />
    <glyph glyph-name="guillemotleft" unicode="&#xab;" horiz-adv-x="416" 
d="M12 236l196 235h32l-133 -235l131 -237h-32zM176 236l196 235h32l-133 -235l131 -237h-31z" />
    <glyph glyph-name="logicalnot" unicode="&#xac;" horiz-adv-x="627" 
d="M47 360v76h486v-220h-63v144h-423z" />
    <glyph glyph-name="registered" unicode="&#xae;" horiz-adv-x="932" 
d="M58 361q0 155 109 264q53 53 122.5 81t141.5 28q74 0 141 -27t121.5 -81t83 -123t28.5 -142q0 -75 -27 -141.5t-81.5 -121t-123.5 -83t-142 -28.5q-74 0 -141.5 27.5t-122.5 82.5q-109 109 -109 264zM108 361q0 -65 25 -125.5t71 -107t105 -71t123 -24.5q62 0 121.5 24.5
t105.5 71t70.5 106.5t24.5 125q0 64 -24 124.5t-70.5 107.5t-105.5 71.5t-123 24.5q-62 0 -121 -24t-105.5 -71t-71.5 -106.5t-25 -125.5zM314 131v469h110q41 0 63 -6t42 -22q33 -27 42 -72q3 -17 3 -31q0 -50 -29 -82.5t-78 -39.5l-16 -1l147 -215h-71l-153 231v-231h-60z
M374 382h39q49 0 74.5 21.5t25.5 61.5t-24 62.5t-70 22.5h-45v-168z" />
    <glyph glyph-name="macron" unicode="&#xaf;" horiz-adv-x="303" 
d="M1 552v59h301v-59h-301z" />
    <glyph glyph-name="plusminus" unicode="&#xb1;" horiz-adv-x="594" 
d="M506 87v-68h-462v68h462zM309 453v-122h197v-68h-197v-122h-68v122h-197v68h197v122h68z" />
    <glyph glyph-name="acute" unicode="&#xb4;" horiz-adv-x="244" 
d="M50 543l126 140h105l-192 -140h-39z" />
    <glyph glyph-name="mu" unicode="&#xb5;" horiz-adv-x="623" 
d="M166 449v-296q0 -71 14 -95t50 -24q57 0 95 81t38 204v130h92v-328q0 -45 9.5 -66t28.5 -21q20 0 31.5 20.5t11.5 61.5v14h21l1 -9v-13q0 -55 -23.5 -86t-66.5 -31q-49 0 -75.5 43t-26.5 129q-23 -89 -61.5 -130.5t-96.5 -41.5q-42 0 -73 26q-28 27 -40 77l-1 -28
q0 -65 32 -142t32 -91q0 -20 -11 -31t-31 -11q-23 0 -33 17t-10 53l2 58l2 89l-1 101l-2 95v245h92z" />
    <glyph glyph-name="paragraph" unicode="&#xb6;" horiz-adv-x="644" 
d="M240 720h309v-52h-309q-58 0 -99 -42t-41 -103q0 -59 41 -100t99 -41h69v242h55v-624h-55v330h-69q-79 0 -136 57t-57 138t56 138t137 57zM430 0v624h55v-624h-55z" />
    <glyph glyph-name="periodcentered" unicode="&#xb7;" horiz-adv-x="182" 
d="M29 258q0 25 18 42t44 17t43.5 -17.5t17.5 -42.5q0 -23 -18 -40t-43 -17q-26 0 -44 17t-18 41z" />
    <glyph glyph-name="periodcentered" unicode="&#x2219;" horiz-adv-x="182" 
d="M29 258q0 25 18 42t44 17t43.5 -17.5t17.5 -42.5q0 -23 -18 -40t-43 -17q-26 0 -44 17t-18 41z" />
    <glyph glyph-name="cedilla" unicode="&#xb8;" horiz-adv-x="179" 
d="M-1 -168l4 12q113 0 113 46q0 34 -63 34h-7l73 98l18 -5l-34 -59q76 -9 76 -55q0 -33 -37.5 -52.5t-99.5 -19.5z" />
    <glyph glyph-name="ordmasculine" unicode="&#xba;" horiz-adv-x="482" 
d="M53 279v61h341v-61h-341zM47 557q0 20 4 36q13 64 60.5 103.5t109.5 39.5q36 0 72 -15q49 -20 78 -64t29 -99q0 -9 -1.5 -20t-2.5 -17q-10 -53 -47 -90.5t-90 -48.5q-18 -3 -36 -3q-17 0 -35 3q-53 11 -90 48t-48 91zM114 557l1 -21q11 -61 63 -85q21 -10 46 -10
q39 0 69.5 25.5t37.5 68.5q2 16 2 23q0 61 -47 95q-29 21 -64 21q-21 0 -44 -10q-52 -25 -63 -85z" />
    <glyph glyph-name="guillemotright" unicode="&#xbb;" horiz-adv-x="414" 
d="M12 471h31l195 -234l-195 -238h-31l132 237zM176 471h32l194 -234l-194 -238h-32l132 237z" />
    <glyph glyph-name="questiondown" unicode="&#xbf;" horiz-adv-x="429" 
d="M238 520h15l-1 -30q0 -34 -5.5 -56t-19.5 -42l-48 -71q-49 -78 -49 -153q0 -66 30 -104t82 -38q40 0 69.5 23.5t29.5 55.5q0 13 -9 27l-18 26q-7 8 -7 28q0 49 49 49q27 0 45 -22t18 -55q0 -70 -58 -116t-146 -46q-85 0 -139 45t-54 117q0 84 98 175l70 65q23 20 34 44
q5 11 7.5 26.5t6.5 51.5zM177 668q0 26 18 43t44 17q27 0 45 -17t18 -43q0 -25 -18.5 -42.5t-44.5 -17.5t-44 17t-18 43z" />
    <glyph glyph-name="Agrave" unicode="&#xc0;" 
d="M-54 0v16h27h4q23 0 38 7l8 4t8 7q9 7 14 16l13 30l274 642h42l272 -642q29 -64 64 -64l16 1l22 -1v-16h-293v16h33h6q43 0 43 28q0 14 -8 36l-65 159l-292 -1l-67 -158q-10 -20 -10 -37q0 -27 43 -27h7h31v-16h-230zM318 579l-131 -305h259zM208 933h104l112 -140h-38z
" />
    <glyph glyph-name="Aacute" unicode="&#xc1;" 
d="M-54 0v16h27h4q23 0 38 7l8 4t8 7q9 7 14 16l13 30l274 642h42l272 -642q29 -64 64 -64l16 1l22 -1v-16h-293v16h33h6q43 0 43 28q0 14 -8 36l-65 159l-292 -1l-67 -158q-10 -20 -10 -37q0 -27 43 -27h7h31v-16h-230zM318 579l-131 -305h259zM275 792l126 140h105
l-192 -140h-39z" />
    <glyph glyph-name="Acircumflex" unicode="&#xc2;" 
d="M-54 0v16h27h4q23 0 38 7l8 4t8 7q9 7 14 16l13 30l274 642h42l272 -642q29 -64 64 -64l16 1l22 -1v-16h-293v16h33h6q43 0 43 28q0 14 -8 36l-65 159l-292 -1l-67 -158q-10 -20 -10 -37q0 -27 43 -27h7h31v-16h-230zM318 579l-131 -305h259zM194 796l118 134h72
l115 -134l-32 -4l-121 87l-119 -87z" />
    <glyph glyph-name="Atilde" unicode="&#xc3;" 
d="M-54 0v16h27h4q23 0 38 7l8 4t8 7q9 7 14 16l13 30l274 642h42l272 -642q29 -64 64 -64l16 1l22 -1v-16h-293v16h33h6q43 0 43 28q0 14 -8 36l-65 159l-292 -1l-67 -158q-10 -20 -10 -37q0 -27 43 -27h7h31v-16h-230zM318 579l-131 -305h259zM189 800q24 84 90 84
q29 0 94 -22q29 -9 45 -13.5t29 -4.5q18 0 27.5 6t18.5 25h13q-25 -84 -92 -84q-17 0 -38 6q-28 10 -51 17q-54 20 -81 20q-17 0 -25.5 -7t-16.5 -27h-13z" />
    <glyph glyph-name="Adieresis" unicode="&#xc4;" 
d="M-54 0v16h27h4q23 0 38 7l8 4t8 7q9 7 14 16l13 30l274 642h42l272 -642q29 -64 64 -64l16 1l22 -1v-16h-293v16h33h6q43 0 43 28q0 15 -8 36l-67 157l-290 1l-67 -158q-10 -20 -10 -37q0 -27 43 -27h7h31v-16h-230zM174 819q0 26 17.5 42.5t43.5 16.5q24 0 42 -17
t18 -42q0 -23 -17 -40t-42 -17q-26 0 -44 17t-18 40zM426 819q0 25 17 42t42 17q26 0 44 -17t18 -42q0 -23 -18 -40t-44 -17q-23 0 -41 17t-18 40zM187 274l261 -3l-130 308z" />
    <glyph glyph-name="Aring" unicode="&#xc5;" 
d="M-54 0v16h28l9 -1q19 0 31 7q16 5 22.5 14t21.5 44l263 619q-56 23 -56 77q0 36 24 59t61 23q36 0 61.5 -23.5t25.5 -56.5q0 -15 -9.5 -34t-22.5 -29q-6 -6 -19 -12l260 -623q28 -64 75 -64h7h20v-16h-293v16h33h6q43 0 43 28q0 15 -8 36l-65 156l-292 2l-67 -158
q-10 -20 -10 -37q0 -27 43 -27h7h31v-16h-230zM187 274l258 -2l-127 307zM296 777q0 -20 15.5 -34.5t38.5 -14.5q22 0 38 14t16 35t-15 36t-38 15t-39 -15t-16 -36z" />
    <glyph glyph-name="AE" unicode="&#xc6;" horiz-adv-x="1083" 
d="M-64 0v16h16q37 0 58.5 12.5t50.5 51.5l407 561q22 29 22 43q0 13 -12 17t-51 4h-21v16h612l12 -173l-18 -2q-11 77 -43.5 105t-114.5 28l-204 1l1 -284l192 1q54 0 77.5 22.5t23.5 79.5h17v-246l-18 1q-7 59 -28 81t-71 22l-193 1l-1 -278q0 -20 6 -26t24 -6
q32 -4 59 -4.5t53 -0.5h23q121 0 164.5 25t74.5 114l20 -4l-48 -178h-582v16l28 1q15 0 24.5 2.5t19.5 8.5q25 15 25 58l1 151h-317l-114 -156q-20 -27 -20 -44q0 -12 13 -16.5t50 -4.5h19v-16h-237zM541 670l-289 -396h290z" />
    <glyph glyph-name="Ccedilla" unicode="&#xc7;" horiz-adv-x="705" 
d="M650 721h16l14 -229h-17q-9 41 -10 46q-4 17 -13 37q-22 55 -79 89t-127 34q-125 0 -202.5 -92.5t-77.5 -243.5q0 -147 79.5 -239.5t205.5 -92.5q61 0 118 26q42 20 67 43.5t65 79.5l13 -7l-18 -28q-15 -22 -29 -40q-39 -50 -91.5 -73.5t-151.5 -34.5l-23 -35
q39 0 58.5 -14.5t19.5 -39.5q0 -33 -37.5 -52.5t-99.5 -19.5l-44 1l4 12q113 0 113 46q0 35 -62 35h-7l56 67q-89 11 -153 34q-89 35 -145 126t-56 201q0 159 108 266t270 107q40 0 77 -7t74 -21t50 -14q27 0 35 33z" />
    <glyph glyph-name="Egrave" unicode="&#xc8;" horiz-adv-x="649" 
d="M11 0v16l28 1q15 0 24.5 2.5t19.5 8.5q25 14 25 58l1 548q0 45 -25 59q-6 4 -20 8l-53 4v16h572l14 -174l-18 -1q-7 51 -17.5 74t-32.5 37q-17 13 -45 17t-96 4h-170l-2 -283h181q71 0 92.5 18.5t21.5 84.5h18v-247l-18 -1q-7 71 -25.5 88.5t-89.5 17.5h-180v-259
q0 -39 16 -48t89 -9l36 1l110 4q24 0 45 5.5t38 16.5q24 14 39.5 38t32.5 74l17 -2l-49 -177h-579zM185 933h104l112 -140h-38z" />
    <glyph glyph-name="Eacute" unicode="&#xc9;" horiz-adv-x="649" 
d="M11 0v16l28 1q15 0 24.5 2.5t19.5 8.5q25 14 25 58l1 548q0 45 -25 59q-6 4 -20 8l-53 4v16h572l14 -174l-18 -1q-7 51 -17.5 74t-32.5 37q-17 13 -45 17t-96 4h-170l-2 -283h181q71 0 92.5 18.5t21.5 84.5h18v-247l-18 -1q-7 71 -25.5 88.5t-89.5 17.5h-180v-259
q0 -39 16 -48t89 -9l36 1l110 4q24 0 45 5.5t38 16.5q24 14 39.5 38t32.5 74l17 -2l-49 -177h-579zM252 792l126 140h105l-192 -140h-39z" />
    <glyph glyph-name="Ecircumflex" unicode="&#xca;" horiz-adv-x="649" 
d="M11 0v16l28 1q15 0 24.5 2.5t19.5 8.5q25 14 25 58l1 548q0 45 -25 59q-6 4 -20 8l-53 4v16h572l14 -174l-18 -1q-7 51 -17.5 74t-32.5 37q-17 13 -45 17t-96 4h-170l-2 -283h181q71 0 92.5 18.5t21.5 84.5h18v-247l-18 -1q-7 71 -25.5 88.5t-89.5 17.5h-180v-259
q0 -39 16 -48t89 -9l36 1l110 4q24 0 45 5.5t38 16.5q24 14 39.5 38t32.5 74l17 -2l-49 -177h-579zM171 796l118 134h72l115 -134l-32 -4l-121 87l-119 -87z" />
    <glyph glyph-name="Edieresis" unicode="&#xcb;" horiz-adv-x="649" 
d="M11 0v16l28 1q15 0 24.5 2.5t19.5 8.5q25 14 25 58l1 548q0 45 -25 59q-6 4 -20 8l-53 4v16h572l14 -174l-18 -1q-7 51 -17.5 74t-32.5 37q-17 13 -45 17t-96 4h-170l-2 -283h181q71 0 92.5 18.5t21.5 84.5h18v-247l-18 -1q-7 71 -25.5 88.5t-89.5 17.5h-180v-259
q0 -39 16 -48t89 -9l36 1l110 4q24 0 45 5.5t38 16.5q24 14 39.5 38t32.5 74l17 -2l-49 -177h-579zM183 851q0 22 16.5 37.5t38.5 15.5t38 -15t16 -38q0 -21 -16.5 -36.5t-37.5 -15.5q-23 0 -39 15t-16 37zM357 851q0 22 16.5 37.5t38.5 15.5q23 0 38.5 -15.5t15.5 -37.5
q0 -21 -15.5 -36.5t-38.5 -15.5t-39 15t-16 37z" />
    <glyph glyph-name="Igrave" unicode="&#xcc;" horiz-adv-x="324" 
d="M11 0v16l29 1q26 0 43 11q15 8 20 19.5t5 38.5v15v534q0 43 -25 58q-6 4 -20 8q-16 3 -21 3.5t-31 0.5v16h303v-16l-29 -1q-27 0 -44 -11q-25 -15 -25 -58l1 -549q0 -42 24 -58l20 -9q7 -1 17.5 -2t32.5 -1v-16h-300zM23 933h104l112 -140h-38z" />
    <glyph glyph-name="Iacute" unicode="&#xcd;" horiz-adv-x="324" 
d="M11 0v16l29 1q26 0 43 11q15 8 20 19.5t5 38.5v15v534q0 43 -25 58q-6 4 -20 8q-16 3 -21 3.5t-31 0.5v16h303v-16l-29 -1q-27 0 -44 -11q-25 -15 -25 -58l1 -549q0 -42 24 -58l20 -9q7 -1 17.5 -2t32.5 -1v-16h-300zM90 792l126 140h105l-192 -140h-39z" />
    <glyph glyph-name="Icircumflex" unicode="&#xce;" horiz-adv-x="324" 
d="M11 0v16l29 1q26 0 43 11q15 8 20 19.5t5 38.5v15v534q0 43 -25 58q-6 4 -20 8q-16 3 -21 3.5t-31 0.5v16h303v-16l-29 -1q-27 0 -44 -11q-25 -15 -25 -58l1 -549q0 -42 24 -58l20 -9q7 -1 17.5 -2t32.5 -1v-16h-300zM9 796l118 134h72l115 -134l-32 -4l-121 87l-119 -87
z" />
    <glyph glyph-name="Idieresis" unicode="&#xcf;" horiz-adv-x="324" 
d="M11 0v16l29 1q26 0 43 11q15 8 20 19.5t5 38.5v15v534q0 43 -25 58q-6 4 -20 8q-16 3 -21 3.5t-31 0.5v16h303v-16l-29 -1q-27 0 -44 -11q-25 -15 -25 -58l1 -549q0 -42 24 -58l20 -9q7 -1 17.5 -2t32.5 -1v-16h-300zM20 851q0 22 16.5 37.5t38.5 15.5t38 -15t16 -38
q0 -21 -16.5 -36.5t-37.5 -15.5q-23 0 -39 15t-16 37zM194 851q0 22 16.5 37.5t38.5 15.5q23 0 38.5 -15.5t15.5 -37.5q0 -21 -15.5 -36.5t-38.5 -15.5t-39 15t-16 37z" />
    <glyph glyph-name="Ntilde" unicode="&#xd1;" horiz-adv-x="769" 
d="M11 0v16l29 1q14 0 23.5 2.5t19.5 8.5q26 14 26 58v549q0 43 -25 58l-20 9q-8 1 -20 2t-33 1v16h192l420 -544l-2 458q0 42 -25 58q-11 7 -24.5 9.5t-47.5 2.5v16h234v-16l-28 -1q-28 0 -48.5 -12.5t-20.5 -56.5l2 -635h-39l-474 613l1 -527q0 -42 24 -58l20 -9
q7 -1 18 -2t33 -1v-16h-235zM226 800q24 84 90 84q29 0 94 -22q29 -9 45 -13.5t29 -4.5q18 0 27.5 6t18.5 25h13q-25 -84 -92 -84q-17 0 -38 6q-28 10 -51 17q-54 20 -81 20q-17 0 -25.5 -7t-16.5 -27h-13z" />
    <glyph glyph-name="Ograve" unicode="&#xd2;" horiz-adv-x="792" 
d="M36 360q0 165 100.5 268.5t259.5 103.5t260 -104t101 -268t-100.5 -267.5t-260.5 -103.5q-159 0 -259.5 103.5t-100.5 267.5zM396 696q-113 0 -177 -89.5t-64 -246.5q0 -156 64.5 -245.5t176.5 -89.5t176.5 89.5t64.5 245.5q0 157 -64.5 246.5t-176.5 89.5zM257 933h104
l112 -140h-38z" />
    <glyph glyph-name="Oacute" unicode="&#xd3;" horiz-adv-x="792" 
d="M36 360q0 165 100.5 268.5t259.5 103.5t260 -104t101 -268t-100.5 -267.5t-260.5 -103.5q-159 0 -259.5 103.5t-100.5 267.5zM396 696q-113 0 -177 -89.5t-64 -246.5q0 -156 64.5 -245.5t176.5 -89.5t176.5 89.5t64.5 245.5q0 157 -64.5 246.5t-176.5 89.5zM324 792
l126 140h105l-192 -140h-39z" />
    <glyph glyph-name="Ocircumflex" unicode="&#xd4;" horiz-adv-x="792" 
d="M36 360q0 165 100.5 268.5t259.5 103.5t260 -104t101 -268t-100.5 -267.5t-260.5 -103.5q-159 0 -259.5 103.5t-100.5 267.5zM396 696q-113 0 -177 -89.5t-64 -246.5q0 -156 64.5 -245.5t176.5 -89.5t176.5 89.5t64.5 245.5q0 157 -64.5 246.5t-176.5 89.5zM243 796
l118 134h72l115 -134l-32 -4l-121 87l-119 -87z" />
    <glyph glyph-name="Otilde" unicode="&#xd5;" horiz-adv-x="792" 
d="M36 360q0 165 100.5 268.5t259.5 103.5t260 -104t101 -268t-100.5 -267.5t-260.5 -103.5q-159 0 -259.5 103.5t-100.5 267.5zM396 696q-113 0 -177 -89.5t-64 -246.5q0 -156 64.5 -245.5t176.5 -89.5t176.5 89.5t64.5 245.5q0 157 -64.5 246.5t-176.5 89.5zM238 800
q24 84 90 84q29 0 94 -22q29 -9 45 -13.5t29 -4.5q18 0 27.5 6t18.5 25h13q-25 -84 -92 -84q-17 0 -38 6q-28 10 -51 17q-54 20 -81 20q-17 0 -25.5 -7t-16.5 -27h-13z" />
    <glyph glyph-name="Odieresis" unicode="&#xd6;" horiz-adv-x="792" 
d="M128 819q0 25 17 42t43 17q25 0 43 -17t18 -42q0 -24 -17.5 -40.5t-42.5 -16.5t-43 17t-18 40zM549 819q0 25 17 42t43 17q25 0 43 -17t18 -42q0 -23 -18 -40t-43 -17q-24 0 -42 17t-18 40zM36 360q0 165 100.5 268.5t259.5 103.5t260 -104t101 -268t-100.5 -267.5
t-260.5 -103.5q-159 0 -259.5 103.5t-100.5 267.5zM396 696q-113 0 -177 -89.5t-64 -246.5q0 -156 64.5 -245.5t176.5 -89.5t176.5 89.5t64.5 245.5q0 157 -64.5 246.5t-176.5 89.5z" />
    <glyph glyph-name="Oslash" unicode="&#xd8;" horiz-adv-x="801" 
d="M644 641l87 87l35 -29l-90 -90q49 -69 65 -117.5t16 -130.5q0 -163 -102.5 -268.5t-260.5 -105.5q-68 0 -133.5 24t-111.5 66l-80 -83l-30 33l79 81q-46 58 -65 115t-19 137q0 166 101 270t263 104q139 0 246 -93zM208 131q11 -18 20 -29.5t21 -22.5q63 -56 147 -56
q113 0 177 91.5t64 255.5q0 52 -6 82.5t-26 86.5zM584 585l-23 33q-29 36 -73 56t-94 20q-101 0 -166 -76q-41 -47 -58 -97q-20 -59 -20 -158q0 -62 8 -100q4 -20 26 -88z" />
    <glyph glyph-name="Ugrave" unicode="&#xd9;" horiz-adv-x="772" 
d="M4 706v15h304v-15l-28 -2q-26 0 -43 -10q-25 -15 -25 -59v-419q0 -88 56.5 -136.5t158.5 -48.5q96 0 152.5 50t56.5 136v418q0 44 -25 59q-18 8 -21 8l-53 4v15h237v-15l-28 -2q-27 0 -43 -10q-25 -15 -25 -59l-1 -420q0 -103 -75 -164t-204 -61q-82 0 -156.5 31
t-106.5 74.5t-32 115.5v424q0 43 -26 59q-18 8 -20 8zM247 933h104l112 -140h-38z" />
    <glyph glyph-name="Uacute" unicode="&#xda;" horiz-adv-x="772" 
d="M4 706v15h304v-15l-28 -2q-26 0 -43 -10q-25 -15 -25 -59v-419q0 -88 56.5 -136.5t158.5 -48.5q96 0 152.5 50t56.5 136v418q0 44 -25 59q-18 8 -21 8l-53 4v15h237v-15l-28 -2q-27 0 -43 -10q-25 -15 -25 -59l-1 -420q0 -103 -75 -164t-204 -61q-82 0 -156.5 31
t-106.5 74.5t-32 115.5v424q0 43 -26 59q-18 8 -20 8zM314 792l126 140h105l-192 -140h-39z" />
    <glyph glyph-name="Ucircumflex" unicode="&#xdb;" horiz-adv-x="772" 
d="M4 706v15h304v-15l-28 -2q-26 0 -43 -10q-25 -15 -25 -59v-419q0 -88 56.5 -136.5t158.5 -48.5q96 0 152.5 50t56.5 136v418q0 44 -25 59q-18 8 -21 8l-53 4v15h237v-15l-28 -2q-27 0 -43 -10q-25 -15 -25 -59l-1 -420q0 -103 -75 -164t-204 -61q-82 0 -156.5 31
t-106.5 74.5t-32 115.5v424q0 43 -26 59q-18 8 -20 8zM233 796l118 134h72l115 -134l-32 -4l-121 87l-119 -87z" />
    <glyph glyph-name="Udieresis" unicode="&#xdc;" horiz-adv-x="772" 
d="M212 827q0 25 17.5 41.5t42.5 16.5t43 -17t18 -40q0 -24 -18.5 -41.5t-43.5 -17.5q-23 0 -41 17t-18 41zM512 828q0 24 17.5 40.5t43.5 16.5q25 0 42 -17t17 -41t-17 -41t-42 -17t-43 17t-18 42zM4 706v15h304v-15l-28 -2q-26 0 -43 -10q-25 -15 -25 -59v-419
q0 -88 56.5 -136.5t158.5 -48.5q96 0 152.5 50t56.5 136v418q0 44 -25 59q-18 8 -21 8l-53 4v15h237v-15l-28 -2q-27 0 -43 -10q-25 -15 -25 -59l-1 -420q0 -103 -75 -164t-204 -61q-82 0 -156.5 31t-106.5 74.5t-32 115.5v424q0 43 -26 59q-18 8 -20 8z" />
    <glyph glyph-name="germandbls" unicode="&#xdf;" horiz-adv-x="559" 
d="M-9 0v15q53 0 71.5 14.5t18.5 54.5l1 17l1 441q0 50 9 79.5t32 53.5q53 55 155 55q88 0 143 -44t55 -115q0 -63 -48 -101q-19 -15 -40.5 -23.5t-64.5 -18.5q90 -9 133 -42q76 -56 76 -164q0 -94 -57 -162t-134 -68q-41 0 -69.5 22.5t-28.5 55.5q0 20 11.5 33.5t27.5 13.5
q15 0 24.5 -9.5t9.5 -23.5l-2 -13l-5 -15l-1 -6q0 -9 9.5 -15.5t23.5 -6.5q39 0 66 47t27 115q0 65 -22 115q-15 37 -45 65q-25 23 -46 30.5t-61 7.5v29q34 0 52 7.5t36 26t26 42t8 58.5q0 60 -28 94t-78 34q-95 0 -95 -137l-4 -478q0 -40 14.5 -54.5t56.5 -14.5v-15h-258z
" />
    <glyph glyph-name="agrave" unicode="&#xe0;" horiz-adv-x="504" 
d="M320 297v85q0 34 -2 43.5t-13 22.5q-23 26 -69 26q-36 0 -62.5 -17t-26.5 -40l3 -17l7 -17l2 -12q0 -21 -15 -35t-37 -14q-23 0 -37 14t-14 37q0 53 58 91t141 38q87 0 126.5 -30t39.5 -97v-274q0 -36 6.5 -47.5t27.5 -11.5q12 0 21 6t21 21l10 -11l-24 -31
q-16 -17 -37.5 -27t-44.5 -10q-42 0 -63 34q-5 8 -8 19.5t-7 32.5q-33 -34 -57 -52q-53 -35 -108 -35q-57 0 -93.5 32.5t-36.5 82.5q0 96 116 140q14 6 50 18t44 14zM321 105v166l-69 -23q-61 -24 -80 -38q-44 -28 -44 -80q0 -36 25 -62t61 -26q10 0 23.5 3.5t26.5 9.5
q22 12 57 50zM113 684h104l112 -140h-38z" />
    <glyph glyph-name="aacute" unicode="&#xe1;" horiz-adv-x="504" 
d="M320 297v85q0 34 -2 43.5t-13 22.5q-23 26 -69 26q-36 0 -62.5 -17t-26.5 -40l3 -17l7 -17l2 -12q0 -21 -15 -35t-37 -14q-23 0 -37 14t-14 37q0 53 58 91t141 38q87 0 126.5 -30t39.5 -97v-274q0 -36 6.5 -47.5t27.5 -11.5q12 0 21 6t21 21l10 -11l-24 -31
q-16 -17 -37.5 -27t-44.5 -10q-42 0 -63 34q-5 8 -8 19.5t-7 32.5q-33 -34 -57 -52q-53 -35 -108 -35q-57 0 -93.5 32.5t-36.5 82.5q0 96 116 140q14 6 50 18t44 14zM321 105v166l-69 -23q-61 -24 -80 -38q-44 -28 -44 -80q0 -36 25 -62t61 -26q10 0 23.5 3.5t26.5 9.5
q22 12 57 50zM180 543l126 140h105l-192 -140h-39z" />
    <glyph glyph-name="acircumflex" unicode="&#xe2;" horiz-adv-x="504" 
d="M320 297v85q0 34 -2 43.5t-13 22.5q-23 26 -69 26q-36 0 -62.5 -17t-26.5 -40l3 -17l7 -17l2 -12q0 -21 -15 -35t-37 -14q-23 0 -37 14t-14 37q0 53 58 91t141 38q87 0 126.5 -30t39.5 -97v-274q0 -36 6.5 -47.5t27.5 -11.5q12 0 21 6t21 21l10 -11l-24 -31
q-16 -17 -37.5 -27t-44.5 -10q-42 0 -63 34q-5 8 -8 19.5t-7 32.5q-33 -34 -57 -52q-53 -35 -108 -35q-57 0 -93.5 32.5t-36.5 82.5q0 96 116 140q14 6 50 18t44 14zM321 105v166l-69 -23q-61 -24 -80 -38q-44 -28 -44 -80q0 -36 25 -62t61 -26q10 0 23.5 3.5t26.5 9.5
q22 12 57 50zM99 547l118 134h72l115 -134l-32 -4l-121 87l-119 -87z" />
    <glyph glyph-name="atilde" unicode="&#xe3;" horiz-adv-x="504" 
d="M320 297v85q0 34 -2 43.5t-13 22.5q-23 26 -69 26q-36 0 -62.5 -17t-26.5 -40l3 -17l7 -17l2 -12q0 -21 -15 -35t-37 -14q-23 0 -37 14t-14 37q0 53 58 91t141 38q87 0 126.5 -30t39.5 -97v-274q0 -36 6.5 -47.5t27.5 -11.5q12 0 21 6t21 21l10 -11l-24 -31
q-16 -17 -37.5 -27t-44.5 -10q-42 0 -63 34q-5 8 -8 19.5t-7 32.5q-33 -34 -57 -52q-53 -35 -108 -35q-57 0 -93.5 32.5t-36.5 82.5q0 96 116 140q14 6 50 18t44 14zM321 105v166l-69 -23q-61 -24 -80 -38q-44 -28 -44 -80q0 -36 25 -62t61 -26q10 0 23.5 3.5t26.5 9.5
q22 12 57 50zM94 551q24 84 90 84q29 0 94 -22q29 -9 45 -13.5t29 -4.5q18 0 27.5 6t18.5 25h13q-25 -84 -92 -84q-17 0 -38 6q-28 10 -51 17q-54 20 -81 20q-17 0 -25.5 -7t-16.5 -27h-13z" />
    <glyph glyph-name="adieresis" unicode="&#xe4;" horiz-adv-x="504" 
d="M105 626q0 22 15.5 36.5t38.5 14.5q22 0 38 -15t16 -36t-16.5 -36.5t-38.5 -15.5t-37.5 15.5t-15.5 36.5zM281 626q0 22 15.5 36.5t38.5 14.5q21 0 37 -15t16 -36t-15.5 -36.5t-37.5 -15.5t-38 15t-16 37zM320 297v85q0 34 -2 43.5t-13 22.5q-23 26 -69 26
q-36 0 -62.5 -17t-26.5 -40l3 -17l7 -17l2 -12q0 -21 -15 -35t-37 -14q-23 0 -37 14t-14 37q0 53 58 91t141 38q87 0 126.5 -30t39.5 -97v-274q0 -36 6.5 -47.5t27.5 -11.5q12 0 21 6t21 21l10 -11l-24 -31q-16 -17 -37.5 -27t-44.5 -10q-42 0 -63 34q-5 8 -8 19.5t-7 32.5
q-33 -34 -57 -52q-53 -35 -108 -35q-57 0 -93.5 32.5t-36.5 82.5q0 96 116 140q14 6 50 18t44 14zM321 105v166l-69 -23q-61 -24 -80 -38q-44 -28 -44 -80q0 -36 25 -62t61 -26q10 0 23.5 3.5t26.5 9.5q22 12 57 50z" />
    <glyph glyph-name="aring" unicode="&#xe5;" horiz-adv-x="504" 
d="M320 297v85q0 34 -2 43.5t-13 22.5q-23 26 -69 26q-36 0 -62.5 -17t-26.5 -40l3 -17l7 -17l2 -12q0 -21 -15 -35t-37 -14q-23 0 -37 14t-14 37q0 53 58 91t141 38q87 0 126.5 -30t39.5 -97v-274q0 -36 6.5 -47.5t27.5 -11.5q12 0 21 6t21 21l10 -11l-24 -31
q-16 -17 -37.5 -27t-44.5 -10q-42 0 -63 34q-5 8 -8 19.5t-7 32.5q-33 -34 -57 -52q-53 -35 -108 -35q-57 0 -93.5 32.5t-36.5 82.5q0 96 116 140q14 6 50 18t44 14zM162 637q0 34 25.5 57.5t61.5 23.5t60.5 -23.5t24.5 -57.5q0 -35 -25 -59t-61 -24t-61 24t-25 59zM321 105
v166l-69 -23q-61 -24 -80 -38q-44 -28 -44 -80q0 -36 25 -62t61 -26q10 0 23.5 3.5t26.5 9.5q22 12 57 50zM249 688q-23 0 -38.5 -14.5t-15.5 -36.5q0 -21 15.5 -35.5t37.5 -14.5q23 0 38.5 14.5t15.5 35.5q0 22 -15.5 36.5t-37.5 14.5z" />
    <glyph glyph-name="ae" unicode="&#xe6;" horiz-adv-x="768" 
d="M317 304v84q0 26 -4 38t-16 24q-23 25 -69 25q-35 0 -60 -17t-25 -41l1 -9l6 -18q4 -8 4 -17q0 -21 -14 -36t-36 -15t-37.5 15.5t-15.5 36.5q0 50 59 90t133 40q58 0 101 -19q17 -7 26.5 -16.5t21.5 -30.5l24 23q49 41 123 41q99 0 154 -77q23 -31 33 -61t10 -81h-321v-5
q0 -101 42 -159t116 -58q59 0 103 38q17 16 27 34t22 52l14 -3q-11 -52 -22.5 -79t-36.5 -52q-59 -61 -143 -61q-46 0 -91 21q-33 15 -50.5 30.5t-41.5 54.5q-19 -20 -30 -31q-20 -20 -41 -34q-59 -41 -123 -41q-59 0 -95.5 33.5t-36.5 87.5q0 63 48 101q22 17 58 33t95 33
l49 14zM446 418q-17 -28 -30 -89h213q-4 30 -8 46.5t-11 34.5q-29 60 -81 60t-83 -52zM316 94v186l-27 -12l-38 -15q-65 -26 -94 -55t-29 -68t21.5 -63.5t56.5 -24.5q52 0 110 52z" />
    <glyph glyph-name="ccedilla" unicode="&#xe7;" horiz-adv-x="472" 
d="M454 185l13 -4q-16 -55 -29 -79.5t-39 -51t-53 -38.5t-78 -16l-23 -35q77 0 77 -54q0 -33 -37.5 -52.5t-99.5 -19.5l-43 1l4 12q112 0 112 46q0 35 -62 35h-7l57 67q-56 5 -84.5 16.5t-56.5 40.5q-71 71 -71 184q0 112 71 188t175 76q70 0 120 -35t50 -84
q0 -21 -16.5 -36.5t-38.5 -15.5q-23 0 -38 14t-15 35l1 7l2 23l1 8q0 23 -20.5 39t-49.5 16q-62 0 -101.5 -56.5t-39.5 -145.5q0 -96 44 -155.5t116 -59.5q53 0 96 37q35 30 63 93z" />
    <glyph glyph-name="egrave" unicode="&#xe8;" horiz-adv-x="482" 
d="M452 285h-319l-1 -31q0 -81 46 -137t114 -56q41 0 70 18q34 19 50 40t31 69l15 -2q-5 -22 -10 -39.5t-13 -40.5q-22 -52 -71 -83t-112 -31q-98 0 -158 69t-60 183q0 113 62 186t160 73q64 0 114 -35q43 -29 62.5 -69.5t19.5 -113.5zM146 382l-12 -52l211 -1
q-7 50 -12.5 68.5t-23.5 39.5q-28 34 -67 34q-32 0 -58.5 -24.5t-37.5 -64.5zM102 684h104l112 -140h-38z" />
    <glyph glyph-name="eacute" unicode="&#xe9;" horiz-adv-x="482" 
d="M452 285h-319l-1 -31q0 -81 46 -137t114 -56q41 0 70 18q34 19 50 40t31 69l15 -2q-5 -22 -10 -39.5t-13 -40.5q-22 -52 -71 -83t-112 -31q-98 0 -158 69t-60 183q0 113 62 186t160 73q64 0 114 -35q43 -29 62.5 -69.5t19.5 -113.5zM146 382l-12 -52l211 -1
q-7 50 -12.5 68.5t-23.5 39.5q-28 34 -67 34q-32 0 -58.5 -24.5t-37.5 -64.5zM169 543l126 140h105l-192 -140h-39z" />
    <glyph glyph-name="ecircumflex" unicode="&#xea;" horiz-adv-x="482" 
d="M452 285h-319l-1 -31q0 -81 46 -137t114 -56q41 0 70 18q34 19 50 40t31 69l15 -2q-5 -22 -10 -39.5t-13 -40.5q-22 -52 -71 -83t-112 -31q-98 0 -158 69t-60 183q0 113 62 186t160 73q64 0 114 -35q43 -29 62.5 -69.5t19.5 -113.5zM146 382l-12 -52l211 -1
q-7 50 -12.5 68.5t-23.5 39.5q-28 34 -67 34q-32 0 -58.5 -24.5t-37.5 -64.5zM88 547l118 134h72l115 -134l-32 -4l-121 87l-119 -87z" />
    <glyph glyph-name="edieresis" unicode="&#xeb;" horiz-adv-x="482" 
d="M452 285h-319l-1 -31q0 -81 46 -137t114 -56q41 0 70 18q34 19 50 40t31 69l15 -2q-5 -22 -10 -39.5t-13 -40.5q-22 -52 -71 -83t-112 -31q-98 0 -158 69t-60 183q0 113 62 186t160 73q64 0 114 -35q43 -29 62.5 -69.5t19.5 -113.5zM146 382l-12 -52l211 -1
q-7 50 -12.5 68.5t-23.5 39.5q-28 34 -67 34q-32 0 -58.5 -24.5t-37.5 -64.5zM99 602q0 22 16.5 37.5t38.5 15.5t38 -15t16 -38q0 -21 -16.5 -36.5t-37.5 -15.5q-23 0 -39 15t-16 37zM273 602q0 22 16.5 37.5t38.5 15.5q23 0 38.5 -15.5t15.5 -37.5q0 -21 -15.5 -36.5
t-38.5 -15.5t-39 15t-16 37z" />
    <glyph glyph-name="igrave" unicode="&#xec;" horiz-adv-x="263" 
d="M5 0v15q46 0 62 14t16 55v15v278q0 32 -4 41q-8 22 -37 22q-15 0 -32 -6l-5 15l174 58v-423q0 -40 16.5 -54.5t61.5 -14.5v-15h-252zM-8 684h104l112 -140h-38z" />
    <glyph glyph-name="iacute" unicode="&#xed;" horiz-adv-x="263" 
d="M5 0v15q46 0 62 14t16 55v15v278q0 32 -4 41q-8 22 -37 22q-15 0 -32 -6l-5 15l174 58v-423q0 -40 16.5 -54.5t61.5 -14.5v-15h-252zM59 543l126 140h105l-192 -140h-39z" />
    <glyph glyph-name="icircumflex" unicode="&#xee;" horiz-adv-x="263" 
d="M5 0v15q46 0 62 14t16 55v15v278q0 32 -4 41q-8 22 -37 22q-15 0 -32 -6l-5 15l174 58v-423q0 -40 16.5 -54.5t61.5 -14.5v-15h-252zM-21 547l118 134h72l115 -134l-32 -4l-121 87l-119 -87z" />
    <glyph glyph-name="idieresis" unicode="&#xef;" horiz-adv-x="263" 
d="M5 0v15q46 0 62 14t16 55v15v278q0 32 -4 41q-8 22 -37 22q-15 0 -32 -6l-5 15l174 58v-423q0 -40 16.5 -54.5t61.5 -14.5v-15h-252zM-10 602q0 22 16.5 37.5t38.5 15.5t38 -15t16 -38q0 -21 -16.5 -36.5t-37.5 -15.5q-23 0 -39 15t-16 37zM164 602q0 22 16.5 37.5
t38.5 15.5q23 0 38.5 -15.5t15.5 -37.5q0 -21 -15.5 -36.5t-38.5 -15.5t-39 15t-16 37z" />
    <glyph glyph-name="ntilde" unicode="&#xf1;" horiz-adv-x="564" 
d="M3 0v15q47 0 63.5 14t16.5 55v22v268q0 33 -4 44q-8 22 -37 22q-15 0 -32 -6l-5 15l174 58l-1 -106q15 15 34.5 33.5t38.5 31.5q50 36 106 36q60 0 100 -43q19 -21 25 -41.5t6 -69.5l-2 -264q0 -40 16.5 -54.5t63.5 -14.5v-15h-252v15q44 0 59.5 14.5t15.5 54.5v255v5
l-1 39q0 16 -13 34q-9 14 -26.5 21t-38.5 7q-42 0 -81 -31q-11 -7 -20.5 -15t-29.5 -27v-288q0 -39 16 -54t61 -15v-15h-253zM124 551q24 84 90 84q29 0 94 -22q29 -9 45 -13.5t29 -4.5q18 0 27.5 6t18.5 25h13q-25 -84 -92 -84q-17 0 -38 6q-28 10 -51 17q-54 20 -81 20
q-17 0 -25.5 -7t-16.5 -27h-13z" />
    <glyph glyph-name="ograve" unicode="&#xf2;" horiz-adv-x="555" 
d="M34 250q0 113 68 184t178 71q109 0 175 -70t66 -186q0 -118 -67 -189t-177 -71q-108 0 -175.5 72.5t-67.5 188.5zM141 268l1 -22q0 -99 42.5 -161.5t105.5 -62.5q58 0 91 52t33 144q0 110 -40 183t-102 73q-59 0 -95 -56.5t-36 -149.5zM138 684h104l112 -140h-38z" />
    <glyph glyph-name="oacute" unicode="&#xf3;" horiz-adv-x="555" 
d="M34 250q0 113 68 184t178 71q109 0 175 -70t66 -186q0 -118 -67 -189t-177 -71q-108 0 -175.5 72.5t-67.5 188.5zM141 268l1 -22q0 -99 42.5 -161.5t105.5 -62.5q58 0 91 52t33 144q0 110 -40 183t-102 73q-59 0 -95 -56.5t-36 -149.5zM205 543l126 140h105l-192 -140
h-39z" />
    <glyph glyph-name="ocircumflex" unicode="&#xf4;" horiz-adv-x="555" 
d="M34 250q0 113 68 184t178 71q109 0 175 -70t66 -186q0 -118 -67 -189t-177 -71q-108 0 -175.5 72.5t-67.5 188.5zM141 268l1 -22q0 -99 42.5 -161.5t105.5 -62.5q58 0 91 52t33 144q0 110 -40 183t-102 73q-59 0 -95 -56.5t-36 -149.5zM124 547l118 134h72l115 -134
l-32 -4l-121 87l-119 -87z" />
    <glyph glyph-name="otilde" unicode="&#xf5;" horiz-adv-x="555" 
d="M34 250q0 113 68 184t178 71q109 0 175 -70t66 -186q0 -118 -67 -189t-177 -71q-108 0 -175.5 72.5t-67.5 188.5zM141 268l1 -22q0 -99 42.5 -161.5t105.5 -62.5q58 0 91 52t33 144q0 110 -40 183t-102 73q-59 0 -95 -56.5t-36 -149.5zM119 551q24 84 90 84q29 0 94 -22
q29 -9 45 -13.5t29 -4.5q18 0 27.5 6t18.5 25h13q-25 -84 -92 -84q-17 0 -38 6q-28 10 -51 17q-54 20 -81 20q-17 0 -25.5 -7t-16.5 -27h-13z" />
    <glyph glyph-name="odieresis" unicode="&#xf6;" horiz-adv-x="555" 
d="M136 626q0 22 15 37t39 15t40 -15t16 -37t-16.5 -37.5t-39.5 -15.5t-38.5 15.5t-15.5 37.5zM311 626q0 22 16 37t39 15q24 0 40 -15t16 -37t-16.5 -37.5t-39.5 -15.5t-39 15t-16 38zM34 250q0 113 68 184t178 71q109 0 175 -70t66 -186q0 -118 -67 -189t-177 -71
q-108 0 -175.5 72.5t-67.5 188.5zM141 268l1 -22q0 -99 42.5 -161.5t105.5 -62.5q58 0 91 52t33 144q0 110 -40 183t-102 73q-59 0 -95 -56.5t-36 -149.5z" />
    <glyph glyph-name="divide" unicode="&#xf7;" horiz-adv-x="594" 
d="M234 141q19 17 41 17q24 0 40 -16t16 -41q0 -24 -17 -40q-15 -17 -39 -17t-40.5 17.5t-16.5 39.5q0 24 16 40zM506 270v-68h-463v68h463zM234 410q19 17 41 17q24 0 39 -17q17 -17 17 -40q0 -24 -17 -40q-15 -17 -39 -17t-40.5 16.5t-16.5 40.5t16 40z" />
    <glyph glyph-name="oslash" unicode="&#xf8;" horiz-adv-x="558" 
d="M445 444l52 57l27 -24l-54 -61q51 -64 51 -170q0 -117 -66 -187t-176 -70q-45 0 -87 14q-22 8 -37.5 17t-39.5 28l-56 -59l-24 26l55 60q-56 76 -56 176q0 112 69 183t179 71q51 0 87 -13.5t76 -47.5zM173 107q44 -84 116 -84q61 0 93 49t32 142q0 66 -18 132zM382 384
q-41 90 -111 90q-59 0 -94.5 -56.5t-35.5 -149.5q0 -42 2 -54.5t16 -69.5z" />
    <glyph glyph-name="ugrave" unicode="&#xf9;" horiz-adv-x="571" 
d="M4 449l175 58l2 -363q0 -29 4 -44t17 -29q22 -22 60 -22q27 0 48 12q17 7 32.5 19.5t47.5 43.5v250q0 35 -4 44q-8 22 -37 22q-15 0 -32 -6l-5 15l174 58l3 -391q0 -58 48 -58l26 4l2 -14l-175 -57v102q-34 -36 -54.5 -52.5t-46.5 -29.5q-34 -17 -74 -17q-57 0 -96 34
q-21 19 -29 43t-8 71v232v16q0 19 -3 28q-8 22 -37 22q-15 0 -33 -6zM146 684h104l112 -140h-38z" />
    <glyph glyph-name="uacute" unicode="&#xfa;" horiz-adv-x="571" 
d="M4 449l175 58l2 -363q0 -29 4 -44t17 -29q22 -22 60 -22q27 0 48 12q17 7 32.5 19.5t47.5 43.5v250q0 35 -4 44q-8 22 -37 22q-15 0 -32 -6l-5 15l174 58l3 -391q0 -58 48 -58l26 4l2 -14l-175 -57v102q-34 -36 -54.5 -52.5t-46.5 -29.5q-34 -17 -74 -17q-57 0 -96 34
q-21 19 -29 43t-8 71v232v16q0 19 -3 28q-8 22 -37 22q-15 0 -33 -6zM213 543l126 140h105l-192 -140h-39z" />
    <glyph glyph-name="ucircumflex" unicode="&#xfb;" horiz-adv-x="571" 
d="M4 449l175 58l2 -363q0 -29 4 -44t17 -29q22 -22 60 -22q27 0 48 12q17 7 32.5 19.5t47.5 43.5v250q0 35 -4 44q-8 22 -37 22q-15 0 -32 -6l-5 15l174 58l3 -391q0 -58 48 -58l26 4l2 -14l-175 -57v102q-34 -36 -54.5 -52.5t-46.5 -29.5q-34 -17 -74 -17q-57 0 -96 34
q-21 19 -29 43t-8 71v232v16q0 19 -3 28q-8 22 -37 22q-15 0 -33 -6zM132 547l118 134h72l115 -134l-32 -4l-121 87l-119 -87z" />
    <glyph glyph-name="udieresis" unicode="&#xfc;" horiz-adv-x="571" 
d="M144 631q0 23 15 38t38 15t39 -15t16 -38q0 -21 -15.5 -35.5t-38.5 -14.5t-38.5 14.5t-15.5 35.5zM319 631q0 23 16 38t39 15q22 0 38 -15t16 -38q0 -21 -16.5 -35.5t-38.5 -14.5t-38 14t-16 36zM4 449l175 58l2 -363q0 -29 4 -44t17 -29q22 -22 60 -22q27 0 48 12
q17 7 32.5 19.5t47.5 43.5v250q0 35 -4 44q-8 22 -37 22q-15 0 -32 -6l-5 15l174 58l3 -391q0 -58 48 -58l26 4l2 -14l-175 -57v102q-34 -36 -54.5 -52.5t-46.5 -29.5q-34 -17 -74 -17q-57 0 -96 34q-21 19 -29 43t-8 71v232v16q0 19 -3 28q-8 22 -37 22q-15 0 -33 -6z" />
    <glyph glyph-name="ydieresis" unicode="&#xff;" horiz-adv-x="441" 
d="M-44 481v15h227v-15h-20q-33 0 -33 -26q0 -11 1 -16t7 -22l113 -305l121 305q10 28 10 38q0 26 -36 26h-20v15h163v-15h-13q-19 0 -28 -6l-14 -12l-12 -15l-13 -31l-177 -441q-30 -77 -60 -111q-20 -22 -50.5 -36t-62.5 -14q-37 0 -59.5 16t-22.5 43q0 20 15 34t37 14
q32 0 50 -31l5 -10l9 -6q5 -4 16 -4q24 0 43.5 25.5t44.5 88.5l-163 432q-14 36 -28 50t-36 14h-14zM79 602q0 22 16.5 37.5t38.5 15.5t38 -15t16 -38q0 -21 -16.5 -36.5t-37.5 -15.5q-23 0 -39 15t-16 37zM253 602q0 22 16.5 37.5t38.5 15.5q23 0 38.5 -15.5t15.5 -37.5
q0 -21 -15.5 -36.5t-38.5 -15.5t-39 15t-16 37z" />
    <glyph glyph-name="breve" unicode="&#x2d8;" horiz-adv-x="286" 
d="M0 681l34 4q72 -88 111 -88q38 0 112 88l33 -4q-32 -67 -69 -105t-73 -38q-80 0 -148 143z" />
    <glyph glyph-name="dotaccent" unicode="&#x2d9;" horiz-adv-x="243" 
d="M-2 884l212 -85v-39l-210 44z" />
    <glyph glyph-name="dotlessi" unicode="&#x131;" horiz-adv-x="263" 
d="M5 0v15q46 0 62 14t16 55v15v278q0 32 -4 41q-8 22 -37 22q-15 0 -32 -6l-5 15l174 58v-423q0 -40 16.5 -54.5t61.5 -14.5v-15h-252z" />
    <glyph glyph-name="ring" unicode="&#x2da;" horiz-adv-x="196" 
d="M12 637q0 34 25.5 57.5t60.5 23.5q36 0 61 -23t25 -58t-25 -59t-62 -24q-35 0 -60 24t-25 59zM98 688q-22 0 -38 -15t-16 -36t15.5 -35.5t37.5 -14.5q24 0 39 14t15 36q0 21 -15 36t-38 15z" />
    <glyph glyph-name="ogonek" unicode="&#x2db;" horiz-adv-x="183" 
d="M29 63q0 24 18 42t44 18t44.5 -17.5t18.5 -42.5q0 -26 -18.5 -43.5t-43.5 -17.5q-27 0 -45 17t-18 44z" />
    <glyph glyph-name="caron" unicode="&#x2c7;" horiz-adv-x="302" 
d="M-2 677l33 4l119 -89l121 89l32 -4l-115 -134h-72z" />
    <glyph glyph-name="fraction" unicode="&#x2215;" horiz-adv-x="221" 
d="M-121 11l433 719l37 -21l-431 -719z" />
    <glyph glyph-name="fi" unicode="&#xf001;" horiz-adv-x="469" 
d="M29 225l147 146l-147 147l59 58l147 -147l147 147l58 -58l-147 -147l147 -147l-58 -59l-147 149l-147 -148z" />
    <glyph glyph-name="fl" unicode="&#xf002;" horiz-adv-x="342" 
d="M17 636l217 95l-2 -645q0 -42 25 -58l21 -9q14 -3 25 -3h26v-16h-302v16l27 1q15 0 24.5 2.5t19.5 8.5q25 14 25 58v10v473q0 34 -11 48t-40 14q-14 0 -55 -12v17z" />
    <glyph glyph-name="Zcaron" unicode="&#x17d;" horiz-adv-x="564" 
d="M-48 0l488 679h-191q-54 0 -84 -3t-64 -24q-28 -16 -44 -44.5t-26 -79.5h-17l18 193h565l-485 -676l234 -1q83 0 108.5 4t59.5 23q28 18 44 45.5t30 84.5l18 -2l-40 -199h-614zM129 926l33 4l119 -89l121 89l32 -4l-115 -134h-72z" />
    <glyph glyph-name="zcaron" unicode="&#x17e;" horiz-adv-x="443" 
d="M-10 0l317 462h-129q-42 0 -60.5 -4t-37.5 -18q-27 -19 -38 -86l-16 1l13 141h400l-313 -461l157 1q71 0 99.5 23.5t45.5 95.5l15 -1l-19 -154h-434zM68 677l33 4l119 -89l121 89l32 -4l-115 -134h-72z" />
    <glyph glyph-name="notequal" unicode="&#x112;" horiz-adv-x="594" 
d="M488 410l-75 -74h91v-64h-149l-73 -72h222v-64h-281l-118 -118l-43 44l74 74h-91v64h150l73 72h-223v64h281l118 118z" />
    <glyph glyph-name="infinity" unicode="&#x113;" horiz-adv-x="771" 
d="M430 144q-36 31 -64 94q-33 -62 -71.5 -93t-85.5 -31q-66 0 -111 52.5t-45 131.5q0 83 41 134.5t105 51.5q47 0 82.5 -29.5t65.5 -94.5q31 62 69.5 93t87.5 31q63 0 109 -53t46 -131q0 -83 -40.5 -134.5t-104.5 -51.5q-46 0 -84 30zM257 205q30 30 73 122
q-26 46 -59 69.5t-76 23.5q-51 0 -84 -35t-33 -90q0 -54 29.5 -88.5t76.5 -34.5q40 0 73 33zM453 390q-33 -36 -70 -119q23 -45 58 -70q35 -23 77 -23q52 0 84.5 35t32.5 90q0 56 -30 89.5t-80 33.5q-37 0 -72 -36z" />
    <glyph glyph-name="lessequal" unicode="&#x114;" horiz-adv-x="594" 
d="M506 86v-68h-463v68h463zM506 388l-344 -108l344 -107v-70l-462 145v65l462 145v-70z" />
    <glyph glyph-name="greaterequal" unicode="&#x115;" horiz-adv-x="594" 
d="M506 86v-68h-463v68h463zM506 313v-65l-463 -145v70l344 107l-344 108v70z" />
    <glyph glyph-name="partialdiff" unicode="&#x116;" horiz-adv-x="534" 
d="M313 357q28 -21 45 -70q4 14 6.5 28t2.5 31l3 89q0 85 -15.5 126t-47.5 41q-18 0 -50 -35t-56 -35q-16 0 -25.5 7.5t-11.5 24.5q0 29 29 50q32 21 73 21q77 0 124 -72q22 -36 34 -85t12 -111q0 -163 -64.5 -271.5t-157.5 -108.5q-68 0 -110 51t-42 137q0 82 53 143.5
t125 61.5q44 0 73 -23zM319 317q-21 32 -63 32q-52 0 -86 -60t-34 -161q0 -57 21.5 -88t62.5 -31q53 0 87 62t34 153q0 58 -22 93z" />
    <glyph glyph-name="summation" unicode="&#x117;" horiz-adv-x="771" 
d="M592 729q17 -13 26 -86l15 -129h-44q-32 105 -85 144t-169 39h-132l315 -431l-344 -394h187q122 0 172.5 31.5t82.5 116.5h45l-30 -130l-2 -7q-23 -99 -111 -99h-482l389 446l-375 514h460q65 0 82 -15z" />
    <glyph glyph-name="product" unicode="&#x118;" horiz-adv-x="890" 
d="M30 -176h88v880h-88v40h767v-40h-88v-880h88v-40h-264v40h84v880h-407v-880h84v-40h-264v40z" />
    <glyph glyph-name="pi" unicode="&#x119;" horiz-adv-x="594" 
d="M414 372l-10 1l-1 -24l-3 -150v-40q0 -84 8.5 -105t30.5 -21q28 0 41 29q17 31 17 89h25v-5q0 -80 -26 -118t-80 -38q-56 0 -80 39q-23 41 -23 165l1 78l3 104l-50 1l-77 2q0 -234 -23 -311.5t-80 -77.5q-35 0 -52.5 29t-17.5 86v19h24q0 -27 9.5 -39.5t27.5 -12.5
q42 0 58 62q9 32 14.5 95.5t5.5 149.5h-22q-38 0 -59.5 -13.5t-27.5 -39.5h-23q0 34 10 57.5t28 38.5q35 27 121 27l102 -3l152 -3q34 0 49.5 7t16.5 21l23 1q0 -53 -23.5 -76.5t-74.5 -23.5h-14z" />
    <glyph glyph-name="integral" unicode="&#x11a;" horiz-adv-x="296" 
d="M200 726q38 31 83 31q36 0 58.5 -18.5t22.5 -48.5q0 -20 -13 -34t-36 -14q-29 0 -44 32t-29 32q-57 0 -57 -310l-3 -98q0 -63 -4.5 -120t-11.5 -109q-12 -90 -31 -133q-24 -55 -62.5 -86t-81.5 -31q-35 0 -58 18.5t-23 48.5q0 22 12.5 34.5t36.5 12.5q29 0 44 -31t30 -32
q57 0 57 324l2 84q0 60 4 116t11 111q12 88 32 135q24 55 61 86z" />
    <glyph glyph-name="Omega" unicode="&#x11b;" horiz-adv-x="830" 
d="M470 90h123q48 0 67 17q21 21 21 69h23v-176h-272v180q77 15 122.5 76.5t45.5 151.5q0 106 -59 168.5t-157 62.5t-157 -62.5t-59 -168.5q0 -90 44.5 -151t123.5 -77v-180h-272v176h23q0 -48 19 -67t69 -19h123v59q-118 21 -183 89t-65 170q0 121 92.5 194t241.5 73
t241.5 -73.5t92.5 -193.5q0 -100 -64 -168t-184 -91v-59z" />
    <glyph glyph-name="radical" unicode="&#x11c;" horiz-adv-x="594" 
d="M594 811v-47h-57l-290 -784h-32l-156 431l-61 -22l-12 39l138 48l125 -346l252 681h93z" />
    <glyph glyph-name="approxequal" unicode="&#x11d;" horiz-adv-x="594" 
d="M102 153q-16 -7 -38.5 -20.5t-48.5 -32.5v77q49 31 87 44.5t74 13.5q44 0 115 -24t99 -24t61.5 15t82.5 52v-78q-42 -28 -76.5 -41.5t-72.5 -13.5q-32 0 -104 23.5t-116 23.5q-28 0 -63 -15zM104 273q-31 -13 -89 -54v77q23 14 43.5 25t40.5 18q40 14 76 14
q42 0 114.5 -23.5t100.5 -23.5q27 0 61 14q32 15 83 52v-77q-18 -12 -41 -24t-38 -18q-37 -13 -70 -13t-104.5 23.5t-110.5 23.5q-35 0 -66 -14z" />
    <glyph glyph-name="Gbreve" unicode="&#x11e;" horiz-adv-x="662" 
d="M319 672l276 -672h-574l276 672h22zM279 504l-187 -459h373z" />
    <glyph glyph-name="gbreve" unicode="&#x11f;" horiz-adv-x="534" 
d="M3 289l244 518l244 -518l-244 -522zM435 289l-188 399l-188 -399l188 -403z" />
    <glyph glyph-name="apple" unicode="&#x120;" horiz-adv-x="854" 
d="M408 594l-1 7v11q0 61 46 112t116 64v-12l1 -18q0 -64 -50.5 -114.5t-99.5 -50.5h-4zM650 264q31 -44 85 -67q-56 -121 -101 -167.5t-99 -46.5q-25 0 -64 16t-60 16q-23 0 -64 -16t-62 -16q-30 0 -63 21q-13 10 -30.5 27.5t-32.5 37.5q-47 65 -75.5 143t-28.5 148
q0 107 61.5 174.5t157.5 67.5q16 0 35.5 -4t40.5 -13q43 -17 60 -17q18 0 59 17q45 17 75 17q55 0 97.5 -19.5t77.5 -60.5q-49 -31 -73.5 -70.5t-24.5 -89.5q0 -54 29 -98z" />
    </font>
</defs>
</svg>
